<?xml version="1.0" encoding="UTF-8"?>
<svg width="600px" height="46px" viewBox="0 0 600 46" version="1.1" xmlns="http://www.w3.org/2000/svg" xmlns:xlink="http://www.w3.org/1999/xlink">
    <!-- Generator: Sketch 42 (36781) - http://www.bohemiancoding.com/sketch -->
    <title>bg-modal</title>
    <desc>Created with Sketch.</desc>
    <defs></defs>
    <g id="Page-1" stroke="none" stroke-width="1" fill="none" fill-rule="evenodd">
        <g id="bs-k" transform="translate(0.000000, -123.000000)" fill-rule="nonzero">
            <g id="Group">
                <g transform="translate(364.835759, 161.496454)" fill="#F5B11A">
                    <ellipse id="Oval" cx="2.85500111" cy="3.02042016" rx="2.6769777" ry="2.67123864"></ellipse>
                    <path d="M2.85500111,5.84879048 C1.28030835,5.84879048 0.0205541373,4.591737 0.0205541373,3.02042016 C0.0205541373,1.44910331 1.28030835,0.192049837 2.85500111,0.192049837 C4.42969387,0.192049837 5.68944808,1.44910331 5.68944808,3.02042016 C5.68944808,4.591737 4.42969387,5.84879048 2.85500111,5.84879048 Z M2.85500111,0.66344489 C1.43777762,0.66344489 0.33549269,1.76336668 0.33549269,3.17755184 C0.33549269,4.591737 1.43777762,5.6916588 2.85500111,5.6916588 C4.2722246,5.6916588 5.37450953,4.591737 5.37450953,3.17755184 C5.37450953,1.76336668 4.2722246,0.66344489 2.85500111,0.66344489 Z" id="Shape"></path>
                </g>
                <g transform="translate(524.977130, 153.989051)" fill="#F5B11A">
                    <ellipse id="Oval" cx="3.17482267" cy="3.29976538" rx="2.6769777" ry="2.67123864"></ellipse>
                    <path d="M3.17482267,6.1281357 C1.60012991,6.1281357 0.340375698,4.87108222 0.340375698,3.29976538 C0.340375698,1.72844853 1.60012991,0.471395054 3.17482267,0.471395054 C4.74951543,0.471395054 6.00926964,1.72844853 6.00926964,3.29976538 C6.00926964,4.87108222 4.74951543,6.1281357 3.17482267,6.1281357 Z M3.17482267,0.942790107 C1.75759918,0.942790107 0.65531425,2.0427119 0.65531425,3.45689706 C0.65531425,4.87108222 1.75759918,5.97100401 3.17482267,5.97100401 C4.59204616,5.97100401 5.69433109,4.87108222 5.69433109,3.45689706 C5.69433109,2.0427119 4.43457688,0.942790107 3.17482267,0.942790107 Z" id="Shape"></path>
                </g>
                <g transform="translate(439.943721, 147.703783)" fill="#F16956">
                    <ellipse id="Oval" cx="3.17482267" cy="3.14263369" rx="2.6769777" ry="2.67123864"></ellipse>
                    <path d="M3.17482267,5.97100401 C1.60012991,5.97100401 0.340375698,4.71395054 0.340375698,3.14263369 C0.340375698,1.57131685 1.60012991,0.314263369 3.17482267,0.314263369 C4.74951543,0.314263369 6.00926964,1.57131685 6.00926964,3.14263369 C6.00926964,4.71395054 4.74951543,5.97100401 3.17482267,5.97100401 Z M3.17482267,0.628526738 C1.75759918,0.628526738 0.65531425,1.72844853 0.65531425,3.14263369 C0.65531425,4.55681885 1.75759918,5.65674064 3.17482267,5.65674064 C4.59204616,5.65674064 5.69433109,4.55681885 5.69433109,3.14263369 C5.53686181,1.72844853 4.43457688,0.628526738 3.17482267,0.628526738 Z" id="Shape"></path>
                </g>
                <g transform="translate(83.458716, 117.359222)" id="Shape" fill="#F5B11A">
                    <path d="M3.14938552,5.67488667 C1.57469276,5.67488667 0.314938552,4.41783319 0.314938552,2.84651635 C0.314938552,1.2751995 1.57469276,0.0181460255 3.14938552,0.0181460255 C4.72407829,0.0181460255 5.9838325,1.2751995 5.9838325,2.84651635 C5.9838325,4.41783319 4.72407829,5.67488667 3.14938552,5.67488667 Z M3.14938552,0.332409395 C1.73216204,0.332409395 0.629877105,1.43233119 0.629877105,2.84651635 C0.629877105,4.26070151 1.73216204,5.3606233 3.14938552,5.3606233 C4.56660901,5.3606233 5.66889394,4.26070151 5.66889394,2.84651635 C5.66889394,1.43233119 4.40913973,0.332409395 3.14938552,0.332409395 Z"></path>
                </g>
                <g transform="translate(518.678359, 144.071609)" fill="#383838">
                    <ellipse id="Oval" cx="1.60012991" cy="1.74659456" rx="1.25975421" ry="1.25705348"></ellipse>
                    <path d="M1.60012991,3.16077972 C0.812783526,3.16077972 0.0254371453,2.53225298 0.0254371453,1.58946287 C0.0254371453,0.803804448 0.65531425,0.0181460255 1.60012991,0.0181460255 C2.38747629,0.0181460255 3.17482267,0.646672764 3.17482267,1.58946287 C3.17482267,2.53225298 2.38747629,3.16077972 1.60012991,3.16077972 Z M1.60012991,0.489541079 C0.970252803,0.489541079 0.497844974,0.960936133 0.497844974,1.58946287 C0.497844974,2.21798961 0.970252803,2.68938466 1.60012991,2.68938466 C2.23000701,2.68938466 2.70241484,2.21798961 2.70241484,1.58946287 C2.70241484,1.11806782 2.23000701,0.489541079 1.60012991,0.489541079 Z" id="Shape"></path>
                </g>
                <g transform="translate(321.237323, 164.988269)" fill="#3EBFC0">
                    <ellipse id="Oval" cx="1.88963131" cy="1.57131685" rx="1.25975421" ry="1.25705348"></ellipse>
                    <path d="M1.88963131,3.14263369 C1.10228493,3.14263369 0.314938552,2.51410695 0.314938552,1.57131685 C0.314938552,0.785658423 0.944815657,0 1.88963131,0 C2.83444697,0 3.46432408,0.628526738 3.46432408,1.57131685 C3.3068548,2.35697527 2.6769777,3.14263369 1.88963131,3.14263369 Z M1.88963131,0.471395054 C1.25975421,0.471395054 0.787346381,0.942790107 0.787346381,1.57131685 C0.787346381,2.19984358 1.25975421,2.67123864 1.88963131,2.67123864 C2.51950842,2.67123864 2.99191625,2.19984358 2.99191625,1.57131685 C2.99191625,0.942790107 2.36203914,0.471395054 1.88963131,0.471395054 Z" id="Shape"></path>
                </g>
                <g transform="translate(336.984251, 148.308594)" fill="#F16956">
                    <ellipse id="Oval" cx="1.57469276" cy="1.75216427" rx="1.25975421" ry="1.25705348"></ellipse>
                    <path d="M1.57469276,3.16634943 C0.787346381,3.16634943 0,2.53782269 0,1.59503259 C0,0.809374164 0.629877105,0.0237157415 1.57469276,0.0237157415 C2.36203914,0.0237157415 3.14938552,0.65224248 3.14938552,1.59503259 C3.14938552,2.53782269 2.51950842,3.16634943 1.57469276,3.16634943 Z M1.57469276,0.495110795 C0.944815657,0.495110795 0.472407829,0.966505849 0.472407829,1.59503259 C0.472407829,2.22355932 0.944815657,2.69495438 1.57469276,2.69495438 C2.20456987,2.69495438 2.6769777,2.22355932 2.6769777,1.59503259 C2.6769777,1.12363753 2.20456987,0.495110795 1.57469276,0.495110795 Z" id="Shape"></path>
                </g>
                <g transform="translate(578.516684, 128.498800)" fill="#F16956">
                    <ellipse id="Oval" cx="2.85988412" cy="3.02042016" rx="2.6769777" ry="2.67123864"></ellipse>
                    <path d="M2.85988412,5.84879048 C1.28519136,5.84879048 0.0254371453,4.591737 0.0254371453,3.02042016 C0.0254371453,1.44910331 1.28519136,0.192049837 2.85988412,0.192049837 C4.43457688,0.192049837 5.69433109,1.44910331 5.69433109,3.02042016 C5.69433109,4.591737 4.43457688,5.84879048 2.85988412,5.84879048 Z M2.85988412,0.66344489 C1.44266063,0.66344489 0.340375698,1.76336668 0.340375698,3.17755184 C0.340375698,4.591737 1.44266063,5.6916588 2.85988412,5.6916588 C4.2771076,5.6916588 5.37939254,4.591737 5.37939254,3.17755184 C5.37939254,1.76336668 4.2771076,0.66344489 2.85988412,0.66344489 Z" id="Shape"></path>
                </g>
                <g transform="translate(595.233864, 163.416952)" fill="#3EBFC0">
                    <ellipse id="Oval" cx="1.57469276" cy="2.0427119" rx="1.25975421" ry="1.25705348"></ellipse>
                    <path d="M1.57469276,3.61402874 C0.787346381,3.61402874 0,2.98550201 0,2.0427119 C0,1.09992179 0.629877105,0.471395054 1.57469276,0.471395054 C2.36203914,0.471395054 3.14938552,1.09992179 3.14938552,2.0427119 C3.14938552,2.98550201 2.51950842,3.61402874 1.57469276,3.61402874 Z M1.57469276,0.942790107 C0.944815657,0.942790107 0.472407829,1.41418516 0.472407829,2.0427119 C0.472407829,2.67123864 0.944815657,3.14263369 1.57469276,3.14263369 C2.20456987,3.14263369 2.6769777,2.67123864 2.6769777,2.0427119 C2.83444697,1.41418516 2.20456987,0.942790107 1.57469276,0.942790107 Z" id="Shape"></path>
                </g>
                <g transform="translate(22.650139, 155.560368)" fill="#3EBFC0">
                    <ellipse id="Oval" cx="2.85988412" cy="2.98550201" rx="2.6769777" ry="2.67123864"></ellipse>
                    <path d="M2.85988412,5.81387233 C1.28519136,5.81387233 0.0254371453,4.55681885 0.0254371453,2.98550201 C0.0254371453,1.41418516 1.28519136,0.157131685 2.85988412,0.157131685 C4.43457688,0.157131685 5.69433109,1.41418516 5.69433109,2.98550201 C5.85180037,4.55681885 4.43457688,5.81387233 2.85988412,5.81387233 Z M2.85988412,0.471395054 C1.44266063,0.471395054 0.340375698,1.57131685 0.340375698,2.98550201 C0.340375698,4.39968717 1.44266063,5.49960896 2.85988412,5.49960896 C4.2771076,5.49960896 5.37939254,4.39968717 5.37939254,2.98550201 C5.37939254,1.57131685 4.2771076,0.471395054 2.85988412,0.471395054 Z" id="Shape"></path>
                </g>
                <g transform="translate(4.724078, 125.705348)" fill="#F5B11A">
                    <ellipse id="Oval" cx="2.04710059" cy="2.19984358" rx="1.25975421" ry="1.25705348"></ellipse>
                    <path d="M2.04710059,3.61402874 C1.25975421,3.61402874 0.472407829,2.98550201 0.472407829,2.0427119 C0.472407829,1.25705348 1.10228493,0.471395054 2.04710059,0.471395054 C2.83444697,0.471395054 3.62179335,1.09992179 3.62179335,2.0427119 C3.46432408,2.98550201 2.83444697,3.61402874 2.04710059,3.61402874 Z M2.04710059,1.09992179 C1.41722349,1.09992179 0.944815657,1.57131685 0.944815657,2.19984358 C0.944815657,2.82837032 1.41722349,3.29976538 2.04710059,3.29976538 C2.6769777,3.29976538 3.14938552,2.82837032 3.14938552,2.19984358 C3.14938552,1.57131685 2.6769777,1.09992179 2.04710059,1.09992179 Z" id="Shape"></path>
                </g>
                <g transform="translate(17.926060, 149.879911)" fill="#F16956">
                    <ellipse id="Oval" cx="1.91506846" cy="1.75216427" rx="1.25975421" ry="1.25705348"></ellipse>
                    <path d="M1.91506846,3.16634943 C1.12772208,3.16634943 0.340375698,2.53782269 0.340375698,1.59503259 C0.340375698,0.809374164 0.970252803,0.0237157415 1.91506846,0.0237157415 C2.70241484,0.0237157415 3.48976122,0.65224248 3.48976122,1.59503259 C3.48976122,2.53782269 2.85988412,3.16634943 1.91506846,3.16634943 Z M1.91506846,0.65224248 C1.28519136,0.65224248 0.812783526,1.12363753 0.812783526,1.75216427 C0.812783526,2.38069101 1.28519136,2.85208606 1.91506846,2.85208606 C2.54494556,2.85208606 3.01735339,2.38069101 3.01735339,1.75216427 C3.17482267,1.12363753 2.54494556,0.65224248 1.91506846,0.65224248 Z" id="Shape"></path>
                </g>
                <g transform="translate(250.022647, 165.593080)" fill="#383838">
                    <ellipse id="Oval" cx="1.77072594" cy="1.90929596" rx="1.25975421" ry="1.25705348"></ellipse>
                    <path d="M1.77072594,3.32348112 C0.983379562,3.32348112 0.196033181,2.69495438 0.196033181,1.75216427 C0.196033181,0.966505849 0.825910286,0.180847426 1.77072594,0.180847426 C2.7155416,0.180847426 3.34541871,0.809374164 3.34541871,1.75216427 C3.34541871,2.69495438 2.55807232,3.32348112 1.77072594,3.32348112 Z M1.77072594,0.65224248 C1.14084884,0.65224248 0.668441009,1.12363753 0.668441009,1.75216427 C0.668441009,2.38069101 1.14084884,2.85208606 1.77072594,2.85208606 C2.40060305,2.85208606 2.87301088,2.38069101 2.87301088,1.75216427 C2.87301088,1.28076922 2.40060305,0.65224248 1.77072594,0.65224248 Z" id="Shape"></path>
                </g>
                <g transform="translate(222.031679, 125.705348)" fill="#F5B11A">
                    <ellipse id="Oval" cx="2.04710059" cy="2.0427119" rx="1.25975421" ry="1.25705348"></ellipse>
                    <path d="M2.04710059,3.61402874 C1.25975421,3.61402874 0.472407829,2.98550201 0.472407829,2.0427119 C0.472407829,1.25705348 1.10228493,0.471395054 2.04710059,0.471395054 C2.83444697,0.471395054 3.62179335,1.09992179 3.62179335,2.0427119 C3.46432408,2.82837032 2.83444697,3.61402874 2.04710059,3.61402874 Z M2.04710059,0.942790107 C1.41722349,0.942790107 0.944815657,1.41418516 0.944815657,2.0427119 C0.944815657,2.67123864 1.41722349,3.14263369 2.04710059,3.14263369 C2.6769777,3.14263369 3.14938552,2.67123864 3.14938552,2.0427119 C3.14938552,1.41418516 2.6769777,0.942790107 2.04710059,0.942790107 Z" id="Shape"></path>
                </g>
                <g transform="translate(239.957740, 153.499510)" fill="#F16956">
                    <ellipse id="Oval" cx="1.75759918" cy="1.74659456" rx="1.25975421" ry="1.25705348"></ellipse>
                    <path d="M1.75759918,3.16077972 C0.970252803,3.16077972 0.182906421,2.53225298 0.182906421,1.58946287 C0.182906421,0.803804448 0.812783526,0.0181460255 1.75759918,0.0181460255 C2.54494556,0.0181460255 3.33229195,0.646672764 3.33229195,1.58946287 C3.17482267,2.53225298 2.54494556,3.16077972 1.75759918,3.16077972 Z M1.75759918,0.646672764 C1.12772208,0.646672764 0.65531425,1.11806782 0.65531425,1.74659456 C0.65531425,2.37512129 1.12772208,2.84651635 1.75759918,2.84651635 C2.38747629,2.84651635 2.85988412,2.37512129 2.85988412,1.74659456 C2.85988412,1.11806782 2.38747629,0.646672764 1.75759918,0.646672764 Z" id="Shape"></path>
                </g>
                <g transform="translate(163.414545, 144.561150)" fill="#F16956">
                    <ellipse id="Oval" cx="2.87301088" cy="3.29976538" rx="2.6769777" ry="2.67123864"></ellipse>
                    <path d="M2.87301088,6.1281357 C1.29831811,6.1281357 0.0385639044,4.87108222 0.0385639044,3.29976538 C0.0385639044,1.72844853 1.29831811,0.471395054 2.87301088,0.471395054 C4.44770364,0.471395054 5.70745785,1.72844853 5.70745785,3.29976538 C5.70745785,4.87108222 4.44770364,6.1281357 2.87301088,6.1281357 Z M2.87301088,0.942790107 C1.45578739,0.942790107 0.353502457,2.0427119 0.353502457,3.45689706 C0.353502457,4.87108222 1.45578739,5.97100401 2.87301088,5.97100401 C4.29023436,5.97100401 5.3925193,4.87108222 5.3925193,3.45689706 C5.3925193,2.0427119 4.13276509,0.942790107 2.87301088,0.942790107 Z" id="Shape"></path>
                </g>
                <g transform="translate(175.395337, 147.703783)" fill="#383838">
                    <ellipse id="Oval" cx="1.75759918" cy="1.88558021" rx="1.25975421" ry="1.25705348"></ellipse>
                    <path d="M1.75759918,3.45689706 C0.970252803,3.45689706 0.182906421,2.82837032 0.182906421,1.88558021 C0.182906421,1.09992179 0.812783526,0.314263369 1.75759918,0.314263369 C2.70241484,0.314263369 3.33229195,0.942790107 3.33229195,1.88558021 C3.17482267,2.67123864 2.54494556,3.45689706 1.75759918,3.45689706 Z M1.75759918,0.785658423 C1.12772208,0.785658423 0.65531425,1.25705348 0.65531425,1.88558021 C0.65531425,2.51410695 1.12772208,2.98550201 1.75759918,2.98550201 C2.38747629,2.98550201 2.85988412,2.51410695 2.85988412,1.88558021 C2.85988412,1.25705348 2.38747629,0.785658423 1.75759918,0.785658423 Z" id="Shape"></path>
                </g>
            </g>
        </g>
        <g id="bg-modal"></g>
    </g>
</svg>