<?xml version="1.0" encoding="UTF-8"?>
<svg width="207px" height="165px" viewBox="0 0 207 165" version="1.1" xmlns="http://www.w3.org/2000/svg" xmlns:xlink="http://www.w3.org/1999/xlink">
    <!-- Generator: Sketch 42 (36781) - http://www.bohemiancoding.com/sketch -->
    <title>Group 26</title>
    <desc>Created with Sketch.</desc>
    <defs></defs>
    <g id="Page-1" stroke="none" stroke-width="1" fill="none" fill-rule="evenodd">
        <g id="Group-26">
            <circle id="Oval-6" fill="#EF6954" cx="80.5" cy="75.5" r="8.5"></circle>
            <rect id="Rectangle-3" fill="#F5B019" x="114" y="63" width="4" height="4"></rect>
            <rect id="Rectangle-3" fill="#F5B019" x="127" y="64" width="4" height="4"></rect>
            <rect id="Rectangle-3" fill="#F5B019" x="141" y="64" width="4" height="4"></rect>
            <rect id="Rectangle-3" fill="#F5B019" x="140" y="74" width="4" height="4"></rect>
            <rect id="Rectangle-3" fill="#F5B019" x="128" y="77" width="4" height="4"></rect>
            <rect id="Rectangle-3" fill="#F5B019" x="114" y="74" width="4" height="4"></rect>
            <g id="noun_408080_cc" transform="translate(41.000000, 31.000000)" fill="#383838">
                <g id="Group">
                    <g id="noun_324661_cc">
                        <g id="Group">
                            <g>
                                <path d="M134,29.0333333 L134,22.6906667 C134,15.0973333 127.836,8.93333333 120.242667,8.93333333 L113.9,8.93333333 C112.671667,8.93333333 111.666667,9.93833333 111.666667,11.1666667 L87.1,11.1666667 L87.1,6.34266667 C87.1,2.83633333 84.2636667,0 80.7573333,0 L53.2426667,0 C49.7363333,0 46.9,2.83633333 46.9,6.34266667 L46.9,11.1666667 L22.3333333,11.1666667 C22.3333333,9.93833333 21.3283333,8.93333333 20.1,8.93333333 L13.7573333,8.93333333 C6.164,8.93333333 0,15.0973333 0,22.6906667 L0,29.0333333 C0,30.2616667 1.005,31.2666667 2.23333333,31.2666667 L2.23333333,111.666667 C1.005,111.666667 0,112.671667 0,113.9 L0,120.242667 C0,127.836 6.164,134 13.7573333,134 L20.1,134 C21.3283333,134 22.3333333,132.995 22.3333333,131.766667 L111.666667,131.766667 C111.666667,132.995 112.671667,134 113.9,134 L120.242667,134 C127.836,134 134,127.836 134,120.242667 L134,113.9 C134,112.671667 132.995,111.666667 131.766667,111.666667 L131.766667,31.2666667 C132.995,31.2666667 134,30.2616667 134,29.0333333 Z M120.242667,13.4 C125.357,13.4 129.533333,17.5763333 129.533333,22.6906667 L129.533333,26.8 L120.6,26.8 L116.133333,26.8 L116.133333,22.3333333 L116.133333,13.4 L120.242667,13.4 Z M113.9,111.666667 C112.671667,111.666667 111.666667,112.671667 111.666667,113.9 L111.666667,118.366667 L22.3333333,118.366667 L22.3333333,113.9 C22.3333333,112.671667 21.3283333,111.666667 20.1,111.666667 L15.6333333,111.666667 L15.6333333,62.5333333 L118.366667,62.5333333 L118.366667,111.666667 L113.9,111.666667 Z M118.366667,58.0666667 L15.6333333,58.0666667 L15.6333333,31.2666667 L20.1,31.2666667 C21.3283333,31.2666667 22.3333333,30.2616667 22.3333333,29.0333333 L22.3333333,24.5666667 L111.666667,24.5666667 L111.666667,29.0333333 C111.666667,30.2616667 112.671667,31.2666667 113.9,31.2666667 L118.366667,31.2666667 L118.366667,58.0666667 Z M51.3666667,6.34266667 C51.3666667,5.31533333 52.2153333,4.46666667 53.2426667,4.46666667 L80.7796667,4.46666667 C81.7846667,4.46666667 82.6333333,5.31533333 82.6333333,6.34266667 L82.6333333,11.1666667 L51.3666667,11.1666667 L51.3666667,6.34266667 Z M49.1333333,15.6333333 L84.8666667,15.6333333 L111.666667,15.6333333 L111.666667,20.1 L22.3333333,20.1 L22.3333333,15.6333333 L49.1333333,15.6333333 Z M4.46666667,22.6906667 C4.46666667,17.5763333 8.643,13.4 13.7573333,13.4 L17.8666667,13.4 L17.8666667,22.3333333 L17.8666667,26.8 L13.4,26.8 L4.46666667,26.8 L4.46666667,22.6906667 Z M6.7,31.2666667 L11.1666667,31.2666667 L11.1666667,60.3 L11.1666667,111.666667 L6.7,111.666667 L6.7,31.2666667 Z M13.7573333,129.533333 C8.643,129.533333 4.46666667,125.357 4.46666667,120.242667 L4.46666667,116.133333 L13.4,116.133333 L17.8666667,116.133333 L17.8666667,120.6 L17.8666667,129.533333 L13.7573333,129.533333 Z M22.3333333,127.3 L22.3333333,122.833333 L111.666667,122.833333 L111.666667,127.3 L22.3333333,127.3 Z M129.533333,120.242667 C129.533333,125.357 125.357,129.533333 120.242667,129.533333 L116.133333,129.533333 L116.133333,120.6 L116.133333,116.133333 L120.6,116.133333 L129.533333,116.133333 L129.533333,120.242667 Z M127.3,111.666667 L122.833333,111.666667 L122.833333,60.3 L122.833333,31.2666667 L127.3,31.2666667 L127.3,111.666667 Z" id="Shape"></path>
                                <path d="M50.3393333,32.294 C50.317,32.2716667 50.317,32.2716667 50.2946667,32.2716667 C48.2623333,30.284 45.493,29.0333333 42.4333333,29.0333333 C36.2693333,29.0333333 31.2666667,34.036 31.2666667,40.2 C31.2666667,46.364 36.2693333,51.3666667 42.4333333,51.3666667 C48.5973333,51.3666667 53.6,46.364 53.6,40.2 C53.6,37.1403333 52.3493333,34.371 50.3616667,32.361 C50.3393333,32.3386667 50.3393333,32.3163333 50.3393333,32.294 Z M42.4333333,46.9 C38.7483333,46.9 35.7333333,43.885 35.7333333,40.2 C35.7333333,36.515 38.7483333,33.5 42.4333333,33.5 C43.4606667,33.5 44.421,33.7456667 45.3143333,34.17 L40.87,38.6143333 C39.999,39.4853333 39.999,40.8923333 40.87,41.7633333 C41.2943333,42.21 41.8526667,42.4333333 42.4333333,42.4333333 C43.014,42.4333333 43.5723333,42.21 44.019,41.7856667 L48.4633333,37.3413333 C48.8876667,38.2123333 49.1333333,39.1726667 49.1333333,40.2 C49.1333333,43.885 46.1183333,46.9 42.4333333,46.9 Z" id="Shape"></path>
                                <path d="M78.1666667,29.0333333 L71.4666667,29.0333333 C70.2383333,29.0333333 69.2333333,30.0383333 69.2333333,31.2666667 L69.2333333,37.9666667 C69.2333333,39.195 70.2383333,40.2 71.4666667,40.2 L78.1666667,40.2 C79.395,40.2 80.4,39.195 80.4,37.9666667 L80.4,31.2666667 C80.4,30.0383333 79.395,29.0333333 78.1666667,29.0333333 Z M75.9333333,35.7333333 L73.7,35.7333333 L73.7,33.5 L75.9333333,33.5 L75.9333333,35.7333333 Z" id="Shape"></path>
                                <path d="M78.1666667,42.4333333 L71.4666667,42.4333333 C70.2383333,42.4333333 69.2333333,43.4383333 69.2333333,44.6666667 L69.2333333,51.3666667 C69.2333333,52.595 70.2383333,53.6 71.4666667,53.6 L78.1666667,53.6 C79.395,53.6 80.4,52.595 80.4,51.3666667 L80.4,44.6666667 C80.4,43.4383333 79.395,42.4333333 78.1666667,42.4333333 Z M75.9333333,49.1333333 L73.7,49.1333333 L73.7,46.9 L75.9333333,46.9 L75.9333333,49.1333333 Z" id="Shape"></path>
                                <path d="M91.5666667,29.0333333 L84.8666667,29.0333333 C83.6383333,29.0333333 82.6333333,30.0383333 82.6333333,31.2666667 L82.6333333,37.9666667 C82.6333333,39.195 83.6383333,40.2 84.8666667,40.2 L91.5666667,40.2 C92.795,40.2 93.8,39.195 93.8,37.9666667 L93.8,31.2666667 C93.8,30.0383333 92.795,29.0333333 91.5666667,29.0333333 Z M89.3333333,35.7333333 L87.1,35.7333333 L87.1,33.5 L89.3333333,33.5 L89.3333333,35.7333333 Z" id="Shape"></path>
                                <path d="M91.5666667,42.4333333 L84.8666667,42.4333333 C83.6383333,42.4333333 82.6333333,43.4383333 82.6333333,44.6666667 L82.6333333,51.3666667 C82.6333333,52.595 83.6383333,53.6 84.8666667,53.6 L91.5666667,53.6 C92.795,53.6 93.8,52.595 93.8,51.3666667 L93.8,44.6666667 C93.8,43.4383333 92.795,42.4333333 91.5666667,42.4333333 Z M89.3333333,49.1333333 L87.1,49.1333333 L87.1,46.9 L89.3333333,46.9 L89.3333333,49.1333333 Z" id="Shape"></path>
                                <path d="M104.966667,29.0333333 L98.2666667,29.0333333 C97.0383333,29.0333333 96.0333333,30.0383333 96.0333333,31.2666667 L96.0333333,37.9666667 C96.0333333,39.195 97.0383333,40.2 98.2666667,40.2 L104.966667,40.2 C106.195,40.2 107.2,39.195 107.2,37.9666667 L107.2,31.2666667 C107.2,30.0383333 106.195,29.0333333 104.966667,29.0333333 Z M102.733333,35.7333333 L100.5,35.7333333 L100.5,33.5 L102.733333,33.5 L102.733333,35.7333333 Z" id="Shape"></path>
                                <path d="M104.966667,42.4333333 L98.2666667,42.4333333 C97.0383333,42.4333333 96.0333333,43.4383333 96.0333333,44.6666667 L96.0333333,51.3666667 C96.0333333,52.595 97.0383333,53.6 98.2666667,53.6 L104.966667,53.6 C106.195,53.6 107.2,52.595 107.2,51.3666667 L107.2,44.6666667 C107.2,43.4383333 106.195,42.4333333 104.966667,42.4333333 Z M102.733333,49.1333333 L100.5,49.1333333 L100.5,46.9 L102.733333,46.9 L102.733333,49.1333333 Z" id="Shape"></path>
                                <ellipse id="Oval" cx="20.1" cy="67" rx="2.23333333" ry="2.23333333"></ellipse>
                                <ellipse id="Oval" cx="33.5" cy="67" rx="2.23333333" ry="2.23333333"></ellipse>
                                <circle id="Oval" cx="46.9" cy="67" r="2.23333333"></circle>
                                <ellipse id="Oval" cx="60.3" cy="67" rx="2.23333333" ry="2.23333333"></ellipse>
                                <circle id="Oval" cx="73.7" cy="67" r="2.23333333"></circle>
                                <circle id="Oval" cx="87.1" cy="67" r="2.23333333"></circle>
                                <circle id="Oval" cx="100.5" cy="67" r="2.23333333"></circle>
                                <circle id="Oval" cx="113.9" cy="67" r="2.23333333"></circle>
                                <circle id="Oval" cx="26.8" cy="73.7" r="2.23333333"></circle>
                                <ellipse id="Oval" cx="40.2" cy="73.7" rx="2.23333333" ry="2.23333333"></ellipse>
                                <circle id="Oval" cx="53.6" cy="73.7" r="2.23333333"></circle>
                                <circle id="Oval" cx="67" cy="73.7" r="2.23333333"></circle>
                                <circle id="Oval" cx="80.4" cy="73.7" r="2.23333333"></circle>
                                <circle id="Oval" cx="93.8" cy="73.7" r="2.23333333"></circle>
                                <circle id="Oval" cx="107.2" cy="73.7" r="2.23333333"></circle>
                                <ellipse id="Oval" cx="20.1" cy="80.4" rx="2.23333333" ry="2.23333333"></ellipse>
                                <ellipse id="Oval" cx="20.1" cy="93.8" rx="2.23333333" ry="2.23333333"></ellipse>
                                <circle id="Oval" cx="26.8" cy="87.1" r="2.23333333"></circle>
                                <ellipse id="Oval" cx="33.5" cy="80.4" rx="2.23333333" ry="2.23333333"></ellipse>
                                <ellipse id="Oval" cx="33.5" cy="93.8" rx="2.23333333" ry="2.23333333"></ellipse>
                                <ellipse id="Oval" cx="40.2" cy="87.1" rx="2.23333333" ry="2.23333333"></ellipse>
                                <circle id="Oval" cx="46.9" cy="80.4" r="2.23333333"></circle>
                                <circle id="Oval" cx="46.9" cy="93.8" r="2.23333333"></circle>
                                <circle id="Oval" cx="53.6" cy="87.1" r="2.23333333"></circle>
                                <ellipse id="Oval" cx="60.3" cy="80.4" rx="2.23333333" ry="2.23333333"></ellipse>
                                <ellipse id="Oval" cx="60.3" cy="93.8" rx="2.23333333" ry="2.23333333"></ellipse>
                                <circle id="Oval" cx="67" cy="87.1" r="2.23333333"></circle>
                                <circle id="Oval" cx="73.7" cy="80.4" r="2.23333333"></circle>
                                <circle id="Oval" cx="73.7" cy="93.8" r="2.23333333"></circle>
                                <circle id="Oval" cx="80.4" cy="87.1" r="2.23333333"></circle>
                                <circle id="Oval" cx="87.1" cy="80.4" r="2.23333333"></circle>
                                <circle id="Oval" cx="87.1" cy="93.8" r="2.23333333"></circle>
                                <circle id="Oval" cx="93.8" cy="87.1" r="2.23333333"></circle>
                                <circle id="Oval" cx="100.5" cy="80.4" r="2.23333333"></circle>
                                <circle id="Oval" cx="100.5" cy="93.8" r="2.23333333"></circle>
                                <circle id="Oval" cx="107.2" cy="87.1" r="2.23333333"></circle>
                                <circle id="Oval" cx="113.9" cy="80.4" r="2.23333333"></circle>
                                <circle id="Oval" cx="113.9" cy="93.8" r="2.23333333"></circle>
                                <circle id="Oval" cx="26.8" cy="100.5" r="2.23333333"></circle>
                                <ellipse id="Oval" cx="40.2" cy="100.5" rx="2.23333333" ry="2.23333333"></ellipse>
                                <circle id="Oval" cx="53.6" cy="100.5" r="2.23333333"></circle>
                                <circle id="Oval" cx="67" cy="100.5" r="2.23333333"></circle>
                                <circle id="Oval" cx="80.4" cy="100.5" r="2.23333333"></circle>
                                <circle id="Oval" cx="93.8" cy="100.5" r="2.23333333"></circle>
                                <circle id="Oval" cx="107.2" cy="100.5" r="2.23333333"></circle>
                                <ellipse id="Oval" cx="20.1" cy="107.2" rx="2.23333333" ry="2.23333333"></ellipse>
                                <circle id="Oval" cx="26.8" cy="113.9" r="2.23333333"></circle>
                                <ellipse id="Oval" cx="33.5" cy="107.2" rx="2.23333333" ry="2.23333333"></ellipse>
                                <ellipse id="Oval" cx="40.2" cy="113.9" rx="2.23333333" ry="2.23333333"></ellipse>
                                <circle id="Oval" cx="46.9" cy="107.2" r="2.23333333"></circle>
                                <circle id="Oval" cx="53.6" cy="113.9" r="2.23333333"></circle>
                                <ellipse id="Oval" cx="60.3" cy="107.2" rx="2.23333333" ry="2.23333333"></ellipse>
                                <circle id="Oval" cx="67" cy="113.9" r="2.23333333"></circle>
                                <circle id="Oval" cx="73.7" cy="107.2" r="2.23333333"></circle>
                                <circle id="Oval" cx="80.4" cy="113.9" r="2.23333333"></circle>
                                <circle id="Oval" cx="87.1" cy="107.2" r="2.23333333"></circle>
                                <circle id="Oval" cx="93.8" cy="113.9" r="2.23333333"></circle>
                                <circle id="Oval" cx="100.5" cy="107.2" r="2.23333333"></circle>
                                <circle id="Oval" cx="107.2" cy="113.9" r="2.23333333"></circle>
                                <circle id="Oval" cx="113.9" cy="107.2" r="2.23333333"></circle>
                            </g>
                        </g>
                    </g>
                </g>
            </g>
            <path d="M97.5902212,4.79151943 C96.8032596,5.52650177 96.8032596,6.71378092 97.5902212,7.44876325 C98.3771828,8.18374558 99.6484284,8.18374558 100.43539,7.44876325 C105.701979,2.53003534 114.277842,2.53003534 119.544432,7.44876325 C119.948002,7.82567727 120.452464,7.99528857 120.977105,7.99528857 C121.501746,7.99528857 122.006209,7.80683157 122.409779,7.44876325 C123.19674,6.71378092 123.19674,5.52650177 122.409779,4.79151943 C115.549088,-1.59717314 104.430733,-1.59717314 97.5902212,4.79151943 Z" id="Shape" fill="#383838"></path>
            <path d="M104.565963,10.293882 C103.811346,11.1428606 103.811346,12.5142875 104.565963,13.3632661 C104.952946,13.7986397 105.436675,13.9945578 105.939754,13.9945578 C106.442832,13.9945578 106.926561,13.776871 107.313544,13.3632661 C108.513193,12.0136078 110.486807,12.0136078 111.705805,13.3632661 C112.460422,14.2122446 113.67942,14.2122446 114.434037,13.3632661 C115.188654,12.5142875 115.188654,11.1428606 114.434037,10.293882 C111.705805,7.224498 107.294195,7.24626668 104.565963,10.293882 Z" id="Shape" fill="#383838"></path>
            <g id="Group-11" transform="translate(0.000000, 88.000000)" fill="#383838">
                <path d="M4.9703543,18 C5.4967462,18 6.00289226,17.8013793 6.40780911,17.424 C7.19739696,16.6493793 7.19739696,15.398069 6.40780911,14.6234483 C3.2494577,11.5249655 3.2494577,6.48 6.40780911,3.38151724 C7.19739696,2.60689655 7.19739696,1.35558621 6.40780911,0.580965517 C5.61822126,-0.193655172 4.34273319,-0.193655172 3.55314534,0.580965517 C-1.18438178,5.22868966 -1.18438178,12.7961379 3.55314534,17.4438621 C3.93781634,17.8013793 4.46420824,18 4.9703543,18 Z" id="Shape"></path>
                <path d="M12.0959164,14 C12.5897436,14 13.0645774,13.8024691 13.4444444,13.4271605 C14.1851852,12.6567901 14.1851852,11.4123457 13.4444444,10.6419753 C12.5707502,9.73333333 12.5707502,8.27160494 13.4444444,7.36296296 C14.1851852,6.59259259 14.1851852,5.34814815 13.4444444,4.57777778 C12.7037037,3.80740741 11.5071225,3.80740741 10.7663818,4.57777778 C8.41120608,7.02716049 8.41120608,10.9975309 10.7663818,13.4469136 C11.1272555,13.8024691 11.6210826,14 12.0959164,14 Z" id="Shape"></path>
            </g>
            <g id="Group-11" transform="translate(200.000000, 97.000000) scale(-1, 1) translate(-200.000000, -97.000000) translate(193.000000, 88.000000)" fill="#383838">
                <path d="M4.9703543,18 C5.4967462,18 6.00289226,17.8013793 6.40780911,17.424 C7.19739696,16.6493793 7.19739696,15.398069 6.40780911,14.6234483 C3.2494577,11.5249655 3.2494577,6.48 6.40780911,3.38151724 C7.19739696,2.60689655 7.19739696,1.35558621 6.40780911,0.580965517 C5.61822126,-0.193655172 4.34273319,-0.193655172 3.55314534,0.580965517 C-1.18438178,5.22868966 -1.18438178,12.7961379 3.55314534,17.4438621 C3.93781634,17.8013793 4.46420824,18 4.9703543,18 Z" id="Shape"></path>
                <path d="M12.0959164,14 C12.5897436,14 13.0645774,13.8024691 13.4444444,13.4271605 C14.1851852,12.6567901 14.1851852,11.4123457 13.4444444,10.6419753 C12.5707502,9.73333333 12.5707502,8.27160494 13.4444444,7.36296296 C14.1851852,6.59259259 14.1851852,5.34814815 13.4444444,4.57777778 C12.7037037,3.80740741 11.5071225,3.80740741 10.7663818,4.57777778 C8.41120608,7.02716049 8.41120608,10.9975309 10.7663818,13.4469136 C11.1272555,13.8024691 11.6210826,14 12.0959164,14 Z" id="Shape"></path>
            </g>
        </g>
    </g>
</svg>