<?xml version="1.0" encoding="UTF-8"?>
<svg width="185px" height="187px" viewBox="0 0 185 187" version="1.1" xmlns="http://www.w3.org/2000/svg" xmlns:xlink="http://www.w3.org/1999/xlink">
    <!-- Generator: Sketch 42 (36781) - http://www.bohemiancoding.com/sketch -->
    <title>Group 25</title>
    <desc>Created with Sketch.</desc>
    <defs></defs>
    <g id="Page-1" stroke="none" stroke-width="1" fill="none" fill-rule="evenodd">
        <g id="Group-25">
            <path d="M44.4824903,122.436623 C45.8365759,122.436623 46.7392996,121.533872 46.7392996,120.179745 L46.7392996,117.020115 C46.7392996,115.665988 45.8365759,114.763236 44.4824903,114.763236 C43.1284047,114.763236 42.2256809,115.665988 42.2256809,117.020115 L42.2256809,120.179745 C42.2256809,121.533872 43.1284047,122.436623 44.4824903,122.436623 Z" id="Shape" fill="#1F2026"></path>
            <path d="M53.5097276,122.436623 C54.8638132,122.436623 55.766537,121.533872 55.766537,120.179745 L55.766537,117.020115 C55.766537,115.665988 54.8638132,114.763236 53.5097276,114.763236 C52.155642,114.763236 51.2529183,115.665988 51.2529183,117.020115 L51.2529183,120.179745 C51.2529183,121.533872 52.381323,122.436623 53.5097276,122.436623 Z" id="Shape" fill="#1F2026"></path>
            <path d="M62.536965,122.436623 C63.8910506,122.436623 64.7937743,121.533872 64.7937743,120.179745 L64.7937743,117.020115 C64.7937743,115.665988 63.8910506,114.763236 62.536965,114.763236 C61.1828794,114.763236 60.2801556,115.665988 60.2801556,117.020115 L60.2801556,120.179745 C60.2801556,121.533872 61.4085603,122.436623 62.536965,122.436623 Z" id="Shape" fill="#1F2026"></path>
            <path d="M44.4824903,135.075143 C45.8365759,135.075143 46.7392996,134.172392 46.7392996,132.818265 L46.7392996,129.884323 C46.7392996,128.530196 45.8365759,127.627444 44.4824903,127.627444 C43.1284047,127.627444 42.2256809,128.530196 42.2256809,129.884323 L42.2256809,133.043953 C42.2256809,134.172392 43.1284047,135.075143 44.4824903,135.075143 Z" id="Shape" fill="#1F2026"></path>
            <path d="M53.5097276,135.075143 C54.8638132,135.075143 55.766537,134.172392 55.766537,132.818265 L55.766537,129.884323 C55.766537,128.530196 54.8638132,127.627444 53.5097276,127.627444 C52.155642,127.627444 51.2529183,128.530196 51.2529183,129.884323 L51.2529183,133.043953 C51.2529183,134.172392 52.381323,135.075143 53.5097276,135.075143 Z" id="Shape" fill="#1F2026"></path>
            <path d="M62.536965,135.075143 C63.8910506,135.075143 64.7937743,134.172392 64.7937743,132.818265 L64.7937743,129.884323 C64.7937743,128.530196 63.8910506,127.627444 62.536965,127.627444 C61.1828794,127.627444 60.2801556,128.530196 60.2801556,129.884323 L60.2801556,133.043953 C60.2801556,134.172392 61.4085603,135.075143 62.536965,135.075143 Z" id="Shape" fill="#1F2026"></path>
            <path d="M44.4824903,147.939351 C45.8365759,147.939351 46.7392996,147.0366 46.7392996,145.682473 L46.7392996,142.522843 C46.7392996,141.168716 45.8365759,140.265964 44.4824903,140.265964 C43.1284047,140.265964 42.2256809,141.168716 42.2256809,142.522843 L42.2256809,145.682473 C42.2256809,146.810912 43.1284047,147.939351 44.4824903,147.939351 Z" id="Shape" fill="#1F2026"></path>
            <path d="M53.5097276,147.939351 C54.8638132,147.939351 55.766537,147.0366 55.766537,145.682473 L55.766537,142.522843 C55.766537,141.168716 54.8638132,140.265964 53.5097276,140.265964 C52.155642,140.265964 51.2529183,141.168716 51.2529183,142.522843 L51.2529183,145.682473 C51.2529183,146.810912 52.381323,147.939351 53.5097276,147.939351 Z" id="Shape" fill="#1F2026"></path>
            <path d="M62.536965,147.939351 C63.8910506,147.939351 64.7937743,147.0366 64.7937743,145.682473 L64.7937743,142.522843 C64.7937743,141.168716 63.8910506,140.265964 62.536965,140.265964 C61.1828794,140.265964 60.2801556,141.168716 60.2801556,142.522843 L60.2801556,145.682473 C60.2801556,146.810912 61.4085603,147.939351 62.536965,147.939351 Z" id="Shape" fill="#1F2026"></path>
            <path d="M44.4824903,160.577871 C45.8365759,160.577871 46.7392996,159.67512 46.7392996,158.320993 L46.7392996,155.161363 C46.7392996,153.807236 45.8365759,152.904484 44.4824903,152.904484 C43.1284047,152.904484 42.2256809,153.807236 42.2256809,155.161363 L42.2256809,158.320993 C42.2256809,159.67512 43.1284047,160.577871 44.4824903,160.577871 Z" id="Shape" fill="#1F2026"></path>
            <path d="M53.5097276,160.577871 C54.8638132,160.577871 55.766537,159.67512 55.766537,158.320993 L55.766537,155.161363 C55.766537,153.807236 54.8638132,152.904484 53.5097276,152.904484 C52.155642,152.904484 51.2529183,153.807236 51.2529183,155.161363 L51.2529183,158.320993 C51.2529183,159.67512 52.381323,160.577871 53.5097276,160.577871 Z" id="Shape" fill="#1F2026"></path>
            <path d="M62.536965,160.577871 C63.8910506,160.577871 64.7937743,159.67512 64.7937743,158.320993 L64.7937743,155.161363 C64.7937743,153.807236 63.8910506,152.904484 62.536965,152.904484 C61.1828794,152.904484 60.2801556,153.807236 60.2801556,155.161363 L60.2801556,158.320993 C60.2801556,159.67512 61.4085603,160.577871 62.536965,160.577871 Z" id="Shape" fill="#1F2026"></path>
            <path d="M123.922179,63.983468 C122.568093,63.983468 121.66537,64.8862194 121.66537,66.2403466 L121.66537,69.3999766 C121.66537,70.7541037 122.568093,71.6568552 123.922179,71.6568552 C125.276265,71.6568552 126.178988,70.7541037 126.178988,69.3999766 L126.178988,66.2403466 C126.178988,64.8862194 125.050584,63.983468 123.922179,63.983468 Z" id="Shape" fill="#1F2026"></path>
            <path d="M132.949416,71.4311673 C134.303502,71.4311673 135.206226,70.5284159 135.206226,69.1742887 L135.206226,66.0146587 C135.206226,64.6605316 134.303502,63.7577801 132.949416,63.7577801 C131.595331,63.7577801 130.692607,64.6605316 130.692607,66.0146587 L130.692607,69.1742887 C130.692607,70.5284159 131.821012,71.4311673 132.949416,71.4311673 Z" id="Shape" fill="#1F2026"></path>
            <path d="M141.976654,71.4311673 C143.330739,71.4311673 144.233463,70.5284159 144.233463,69.1742887 L144.233463,66.0146587 C144.233463,64.6605316 143.330739,63.7577801 141.976654,63.7577801 C140.622568,63.7577801 139.719844,64.6605316 139.719844,66.0146587 L139.719844,69.1742887 C139.719844,70.5284159 140.848249,71.4311673 141.976654,71.4311673 Z" id="Shape" fill="#1F2026"></path>
            <path d="M123.922179,76.6219881 C122.568093,76.6219881 121.66537,77.5247395 121.66537,78.8788666 L121.66537,82.0384967 C121.66537,83.3926238 122.568093,84.2953752 123.922179,84.2953752 C125.276265,84.2953752 126.178988,83.3926238 126.178988,82.0384967 L126.178988,78.8788666 C126.178988,77.5247395 125.050584,76.6219881 123.922179,76.6219881 Z" id="Shape" fill="#383838"></path>
            <path d="M135.206226,81.8128088 L135.206226,78.6531788 C135.206226,77.2990516 134.303502,76.3963002 132.949416,76.3963002 C131.595331,76.3963002 130.692607,77.2990516 130.692607,78.6531788 L130.692607,81.8128088 C130.692607,83.166936 131.595331,84.0696874 132.949416,84.0696874 C134.303502,84.0696874 135.206226,83.166936 135.206226,81.8128088 Z" id="Shape" fill="#383838"></path>
            <path d="M141.976654,84.0696874 C143.330739,84.0696874 144.233463,83.166936 144.233463,81.8128088 L144.233463,78.6531788 C144.233463,77.2990516 143.330739,76.3963002 141.976654,76.3963002 C140.622568,76.3963002 139.719844,77.2990516 139.719844,78.6531788 L139.719844,81.8128088 C139.719844,83.166936 140.848249,84.0696874 141.976654,84.0696874 Z" id="Shape" fill="#1F2026"></path>
            <path d="M141.976654,96.7082075 C143.330739,96.7082075 144.233463,95.805456 144.233463,94.4513289 L144.233463,91.2916989 C144.233463,89.9375717 143.330739,89.0348203 141.976654,89.0348203 C140.622568,89.0348203 139.719844,89.9375717 139.719844,91.2916989 L139.719844,94.4513289 C139.719844,95.805456 140.848249,96.7082075 141.976654,96.7082075 Z" id="Shape" fill="#1F2026"></path>
            <path d="M141.976654,109.346728 C143.330739,109.346728 144.233463,108.443976 144.233463,107.089849 L144.233463,103.930219 C144.233463,102.576092 143.330739,101.67334 141.976654,101.67334 C140.622568,101.67334 139.719844,102.576092 139.719844,103.930219 L139.719844,107.089849 C139.719844,108.443976 140.848249,109.346728 141.976654,109.346728 Z" id="Shape" fill="#1F2026"></path>
            <path d="M141.976654,121.985248 C143.330739,121.985248 144.233463,121.082496 144.233463,119.728369 L144.233463,116.568739 C144.233463,115.214612 143.330739,114.31186 141.976654,114.31186 C140.622568,114.31186 139.719844,115.214612 139.719844,116.568739 L139.719844,119.728369 C139.719844,120.856808 140.848249,121.985248 141.976654,121.985248 Z" id="Shape" fill="#383838"></path>
            <path d="M141.976654,134.623768 C143.330739,134.623768 144.233463,133.721016 144.233463,132.366889 L144.233463,129.207259 C144.233463,127.853132 143.330739,126.950381 141.976654,126.950381 C140.622568,126.950381 139.719844,127.853132 139.719844,129.207259 L139.719844,132.366889 C139.719844,133.495328 140.848249,134.623768 141.976654,134.623768 Z" id="Shape" fill="#1F2026"></path>
            <path d="M141.976654,147.0366 C143.330739,147.0366 144.233463,146.133848 144.233463,144.779721 L144.233463,141.620091 C144.233463,140.265964 143.330739,139.363213 141.976654,139.363213 C140.622568,139.363213 139.719844,140.265964 139.719844,141.620091 L139.719844,144.779721 C139.719844,145.908161 140.848249,147.0366 141.976654,147.0366 Z" id="Shape" fill="#1F2026"></path>
            <path d="M141.976654,159.449432 C143.330739,159.449432 144.233463,158.546681 144.233463,157.192554 L144.233463,154.032924 C144.233463,152.678796 143.330739,151.776045 141.976654,151.776045 C140.622568,151.776045 139.719844,152.678796 139.719844,154.032924 L139.719844,157.192554 C139.719844,158.546681 140.848249,159.449432 141.976654,159.449432 Z" id="Shape" fill="#1F2026"></path>
            <path d="M141.976654,172.087952 C143.330739,172.087952 144.233463,171.185201 144.233463,169.831074 L144.233463,166.671444 C144.233463,165.317316 143.330739,164.414565 141.976654,164.414565 C140.622568,164.414565 139.719844,165.317316 139.719844,166.671444 L139.719844,169.831074 C139.719844,171.185201 140.848249,172.087952 141.976654,172.087952 Z" id="Shape" fill="#1F2026"></path>
            <path d="M64.7937743,73.462358 C63.4396887,73.462358 62.536965,74.3651095 62.536965,75.7192366 L62.536965,78.2018031 C62.536965,79.5559302 63.4396887,80.4586817 64.7937743,80.4586817 C66.1478599,80.4586817 67.0505837,79.5559302 67.0505837,78.2018031 L67.0505837,75.7192366 C67.0505837,74.5907973 66.1478599,73.462358 64.7937743,73.462358 Z" id="Shape" fill="#1F2026"></path>
            <path d="M74.0466926,80.4586817 C75.4007782,80.4586817 76.3035019,79.5559302 76.3035019,78.2018031 L76.3035019,75.7192366 C76.3035019,74.3651095 75.4007782,73.462358 74.0466926,73.462358 C72.692607,73.462358 71.7898833,74.3651095 71.7898833,75.7192366 L71.7898833,78.2018031 C71.7898833,79.5559302 72.692607,80.4586817 74.0466926,80.4586817 Z" id="Shape" fill="#1F2026"></path>
            <path d="M83.07393,80.4586817 C84.4280156,80.4586817 85.3307393,79.5559302 85.3307393,78.2018031 L85.3307393,75.7192366 C85.3307393,74.3651095 84.4280156,73.462358 83.07393,73.462358 C81.7198444,73.462358 80.8171206,74.3651095 80.8171206,75.7192366 L80.8171206,78.2018031 C80.8171206,79.5559302 81.7198444,80.4586817 83.07393,80.4586817 Z" id="Shape" fill="#1F2026"></path>
            <path d="M64.7937743,83.3926238 C63.4396887,83.3926238 62.536965,84.2953752 62.536965,85.6495024 L62.536965,88.1320688 C62.536965,89.486196 63.4396887,90.3889474 64.7937743,90.3889474 C66.1478599,90.3889474 67.0505837,89.486196 67.0505837,88.1320688 L67.0505837,85.6495024 C67.0505837,84.2953752 66.1478599,83.3926238 64.7937743,83.3926238 Z" id="Shape" fill="#1F2026"></path>
            <path d="M74.0466926,90.1632596 C75.4007782,90.1632596 76.3035019,89.2605081 76.3035019,87.906381 L76.3035019,85.4238145 C76.3035019,84.0696874 75.4007782,83.166936 74.0466926,83.166936 C72.692607,83.166936 71.7898833,84.0696874 71.7898833,85.4238145 L71.7898833,87.906381 C71.7898833,89.2605081 72.692607,90.1632596 74.0466926,90.1632596 Z" id="Shape" fill="#1F2026"></path>
            <path d="M83.07393,90.1632596 C84.4280156,90.1632596 85.3307393,89.2605081 85.3307393,87.906381 L85.3307393,85.4238145 C85.3307393,84.0696874 84.4280156,83.166936 83.07393,83.166936 C81.7198444,83.166936 80.8171206,84.0696874 80.8171206,85.4238145 L80.8171206,87.906381 C80.8171206,89.2605081 81.7198444,90.1632596 83.07393,90.1632596 Z" id="Shape" fill="#1F2026"></path>
            <path d="M64.7937743,93.0972017 C63.4396887,93.0972017 62.536965,93.9999532 62.536965,95.3540803 L62.536965,97.8366468 C62.536965,99.1907739 63.4396887,100.093525 64.7937743,100.093525 C66.1478599,100.093525 67.0505837,99.1907739 67.0505837,97.8366468 L67.0505837,95.3540803 C67.0505837,94.225641 66.1478599,93.0972017 64.7937743,93.0972017 Z" id="Shape" fill="#1F2026"></path>
            <path d="M76.3035019,97.8366468 L76.3035019,95.3540803 C76.3035019,93.9999532 75.4007782,93.0972017 74.0466926,93.0972017 C72.692607,93.0972017 71.7898833,93.9999532 71.7898833,95.3540803 L71.7898833,97.8366468 C71.7898833,99.1907739 72.692607,100.093525 74.0466926,100.093525 C75.4007782,100.093525 76.3035019,98.9650861 76.3035019,97.8366468 Z" id="Shape" fill="#383838"></path>
            <path d="M83.07393,100.093525 C84.4280156,100.093525 85.3307393,99.1907739 85.3307393,97.8366468 L85.3307393,95.3540803 C85.3307393,93.9999532 84.4280156,93.0972017 83.07393,93.0972017 C81.7198444,93.0972017 80.8171206,93.9999532 80.8171206,95.3540803 L80.8171206,97.8366468 C80.8171206,98.9650861 81.7198444,100.093525 83.07393,100.093525 Z" id="Shape" fill="#1F2026"></path>
            <path d="M83.07393,110.926543 C84.4280156,110.926543 85.3307393,110.023791 85.3307393,108.669664 L85.3307393,106.187098 C85.3307393,104.83297 84.4280156,103.930219 83.07393,103.930219 C81.7198444,103.930219 80.8171206,104.83297 80.8171206,106.187098 L80.8171206,108.669664 C80.8171206,110.023791 81.7198444,110.926543 83.07393,110.926543 Z" id="Shape" fill="#1F2026"></path>
            <path d="M83.07393,120.856808 C84.4280156,120.856808 85.3307393,119.954057 85.3307393,118.59993 L85.3307393,116.117363 C85.3307393,114.763236 84.4280156,113.860485 83.07393,113.860485 C81.7198444,113.860485 80.8171206,114.763236 80.8171206,116.117363 L80.8171206,118.59993 C80.8171206,119.728369 81.7198444,120.856808 83.07393,120.856808 Z" id="Shape" fill="#1F2026"></path>
            <path d="M83.07393,130.561386 C84.4280156,130.561386 85.3307393,129.658635 85.3307393,128.304508 L85.3307393,125.821941 C85.3307393,124.467814 84.4280156,123.565063 83.07393,123.565063 C81.7198444,123.565063 80.8171206,124.467814 80.8171206,125.821941 L80.8171206,128.304508 C80.8171206,129.658635 81.7198444,130.561386 83.07393,130.561386 Z" id="Shape" fill="#1F2026"></path>
            <path d="M83.07393,140.491652 C84.4280156,140.491652 85.3307393,139.588901 85.3307393,138.234773 L85.3307393,135.752207 C85.3307393,134.39808 84.4280156,133.495328 83.07393,133.495328 C81.7198444,133.495328 80.8171206,134.39808 80.8171206,135.752207 L80.8171206,138.234773 C80.8171206,139.363213 81.7198444,140.491652 83.07393,140.491652 Z" id="Shape" fill="#1F2026"></path>
            <path d="M83.07393,150.19623 C84.4280156,150.19623 85.3307393,149.293479 85.3307393,147.939351 L85.3307393,145.682473 C85.3307393,144.328346 84.4280156,143.425594 83.07393,143.425594 C81.7198444,143.425594 80.8171206,144.328346 80.8171206,145.682473 L80.8171206,147.939351 C80.8171206,149.293479 81.7198444,150.19623 83.07393,150.19623 Z" id="Shape" fill="#1F2026"></path>
            <path d="M83.07393,160.126496 C84.4280156,160.126496 85.3307393,159.223744 85.3307393,157.869617 L85.3307393,155.387051 C85.3307393,154.032924 84.4280156,153.130172 83.07393,153.130172 C81.7198444,153.130172 80.8171206,154.032924 80.8171206,155.387051 L80.8171206,157.869617 C80.8171206,158.998056 81.7198444,160.126496 83.07393,160.126496 Z" id="Shape" fill="#1F2026"></path>
            <path d="M83.07393,169.831074 C84.4280156,169.831074 85.3307393,168.928322 85.3307393,167.574195 L85.3307393,165.091629 C85.3307393,163.737501 84.4280156,162.83475 83.07393,162.83475 C81.7198444,162.83475 80.8171206,163.737501 80.8171206,165.091629 L80.8171206,167.574195 C80.8171206,168.928322 81.7198444,169.831074 83.07393,169.831074 Z" id="Shape" fill="#1F2026"></path>
            <path d="M102.933852,155.387051 L122.342412,155.387051 C123.696498,155.387051 124.599222,154.484299 124.599222,153.130172 C124.599222,151.776045 123.696498,150.873294 122.342412,150.873294 L102.933852,150.873294 C101.579767,150.873294 100.677043,151.776045 100.677043,153.130172 C100.677043,154.484299 101.579767,155.387051 102.933852,155.387051 Z" id="Shape" fill="#1F2026"></path>
            <path d="M102.933852,145.231097 L122.342412,145.231097 C123.696498,145.231097 124.599222,144.328346 124.599222,142.974218 C124.599222,141.620091 123.696498,140.71734 122.342412,140.71734 L102.933852,140.71734 C101.579767,140.71734 100.677043,141.620091 100.677043,142.974218 C100.677043,144.328346 101.579767,145.231097 102.933852,145.231097 Z" id="Shape" fill="#1F2026"></path>
            <path d="M102.933852,135.075143 L122.342412,135.075143 C123.696498,135.075143 124.599222,134.172392 124.599222,132.818265 C124.599222,131.464138 123.696498,130.561386 122.342412,130.561386 L102.933852,130.561386 C101.579767,130.561386 100.677043,131.464138 100.677043,132.818265 C100.677043,134.172392 101.579767,135.075143 102.933852,135.075143 Z" id="Shape" fill="#1F2026"></path>
            <path d="M102.933852,124.91919 L122.342412,124.91919 C123.696498,124.91919 124.599222,124.016438 124.599222,122.662311 C124.599222,121.308184 123.696498,120.405433 122.342412,120.405433 L102.933852,120.405433 C101.579767,120.405433 100.677043,121.308184 100.677043,122.662311 C100.677043,124.016438 101.579767,124.91919 102.933852,124.91919 Z" id="Shape" fill="#1F2026"></path>
            <path d="M102.933852,114.763236 L122.342412,114.763236 C123.696498,114.763236 124.599222,113.860485 124.599222,112.506358 C124.599222,111.15223 123.696498,110.249479 122.342412,110.249479 L102.933852,110.249479 C101.579767,110.249479 100.677043,111.15223 100.677043,112.506358 C100.677043,113.860485 101.579767,114.763236 102.933852,114.763236 Z" id="Shape" fill="#1F2026"></path>
            <path d="M102.933852,104.607283 L122.342412,104.607283 C123.696498,104.607283 124.599222,103.704531 124.599222,102.350404 C124.599222,100.996277 123.696498,100.093525 122.342412,100.093525 L102.933852,100.093525 C101.579767,100.093525 100.677043,100.996277 100.677043,102.350404 C100.677043,103.704531 101.579767,104.607283 102.933852,104.607283 Z" id="Shape" fill="#1F2026"></path>
            <g id="Group-24" transform="translate(0.762646, 0.000000)">
                <path d="M181.970354,117 C182.496746,117 183.002892,116.801379 183.407809,116.424 C184.197397,115.649379 184.197397,114.398069 183.407809,113.623448 C180.249458,110.524966 180.249458,105.48 183.407809,102.381517 C184.197397,101.606897 184.197397,100.355586 183.407809,99.5809655 C182.618221,98.8063448 181.342733,98.8063448 180.553145,99.5809655 C175.815618,104.22869 175.815618,111.796138 180.553145,116.443862 C180.937816,116.801379 181.464208,117 181.970354,117 Z" id="Shape" fill="#1F2026" transform="translate(180.500000, 108.000000) scale(-1, 1) translate(-180.500000, -108.000000) "></path>
                <path d="M171.095916,113 C171.589744,113 172.064577,112.802469 172.444444,112.42716 C173.185185,111.65679 173.185185,110.412346 172.444444,109.641975 C171.57075,108.733333 171.57075,107.271605 172.444444,106.362963 C173.185185,105.592593 173.185185,104.348148 172.444444,103.577778 C171.703704,102.807407 170.507123,102.807407 169.766382,103.577778 C167.411206,106.02716 167.411206,109.997531 169.766382,112.446914 C170.127255,112.802469 170.621083,113 171.095916,113 Z" id="Shape" fill="#1F2026" transform="translate(170.500000, 108.000000) scale(-1, 1) translate(-170.500000, -108.000000) "></path>
                <g id="Group-23">
                    <rect id="Rectangle-2" fill="#3EBEC0" x="28" y="95.8529399" width="10" height="82.1470601" rx="5"></rect>
                    <rect id="Rectangle-2" fill="#3EBEC0" x="49" y="56.8797781" width="10" height="38.9731617" rx="5"></rect>
                    <path d="M78.5902212,4.79151943 C77.8032596,5.52650177 77.8032596,6.71378092 78.5902212,7.44876325 C79.3771828,8.18374558 80.6484284,8.18374558 81.43539,7.44876325 C86.701979,2.53003534 95.2778425,2.53003534 100.544432,7.44876325 C100.948002,7.82567727 101.452464,7.99528857 101.977105,7.99528857 C102.501746,7.99528857 103.006209,7.80683157 103.409779,7.44876325 C104.19674,6.71378092 104.19674,5.52650177 103.409779,4.79151943 C96.5490881,-1.59717314 85.4307334,-1.59717314 78.5902212,4.79151943 Z" id="Shape" fill="#1F2026"></path>
                    <path d="M86.5659631,10.293882 C85.8113456,11.1428606 85.8113456,12.5142875 86.5659631,13.3632661 C86.9529464,13.7986397 87.4366755,13.9945578 87.9397537,13.9945578 C88.442832,13.9945578 88.9265611,13.776871 89.3135444,13.3632661 C90.5131926,12.0136078 92.4868074,12.0136078 93.7058047,13.3632661 C94.4604222,14.2122446 95.6794195,14.2122446 96.4340369,13.3632661 C97.1886544,12.5142875 97.1886544,11.1428606 96.4340369,10.293882 C93.7058047,7.224498 89.2941953,7.24626668 86.5659631,10.293882 Z" id="Shape" fill="#1F2026"></path>
                    <ellipse id="Oval-5" fill="#43FDB1" cx="12.848249" cy="159.705128" rx="8.46303502" ry="8.44017094"></ellipse>
                    <path d="M102.622568,49.0183351 C106.459144,49.0183351 109.618677,45.8587051 109.618677,42.0220115 C109.618677,38.1853179 106.459144,35.0256879 102.622568,35.0256879 C98.7859922,35.0256879 95.4007782,38.1853179 95.4007782,42.0220115 C95.4007782,45.8587051 98.5603113,49.0183351 102.622568,49.0183351 Z M102.622568,39.539445 C103.976654,39.539445 105.105058,40.6678843 105.105058,42.0220115 C105.105058,43.3761386 103.976654,44.5045779 102.622568,44.5045779 C101.268482,44.5045779 99.9143969,43.3761386 99.9143969,42.0220115 C99.9143969,40.6678843 101.042802,39.539445 102.622568,39.539445 Z" id="Shape" fill="#1F2026"></path>
                    <path d="M125.416342,40.2165086 C131.284047,40.2165086 136.023346,35.4770636 136.023346,29.6091793 C136.023346,23.7412949 131.284047,19.0018499 125.416342,19.0018499 C119.548638,19.0018499 114.809339,23.7412949 114.809339,29.6091793 C114.809339,35.4770636 119.548638,40.2165086 125.416342,40.2165086 Z M125.416342,23.5156071 C128.801556,23.5156071 131.509728,26.2238614 131.509728,29.6091793 C131.509728,32.9944971 128.801556,35.7027514 125.416342,35.7027514 C122.031128,35.7027514 119.322957,32.9944971 119.322957,29.6091793 C119.322957,26.2238614 122.031128,23.5156071 125.416342,23.5156071 Z" id="Shape" fill="#1F2026"></path>
                    <ellipse id="Oval-5" fill="#43FDB1" cx="163.828794" cy="160.380342" rx="8.46303502" ry="8.44017094"></ellipse>
                    <path d="M166.490272,154.197565 C160.396887,154.197565 155.206226,159.162698 155.206226,165.481958 C155.206226,170.898466 159.042802,175.186536 164.007782,176.314975 L164.007782,182.182859 L153.175097,182.182859 L153.175097,52.8637162 C153.175097,51.509589 152.272374,50.6068376 150.918288,50.6068376 L113.906615,50.6068376 C112.552529,50.6068376 111.649805,51.509589 111.649805,52.8637162 L111.649805,83.3315771 L109.618677,83.3315771 L107.587549,59.4086641 C107.587549,58.2802248 106.459144,57.3774734 105.330739,57.3774734 L99.688716,57.3774734 C98.5603113,57.3774734 97.4319066,58.2802248 97.4319066,59.4086641 L95.8521401,83.3315771 L93.8210117,83.3315771 L93.8210117,61.6655427 C93.8210117,60.3114155 92.9182879,59.4086641 91.5642023,59.4086641 L54.3268482,59.4086641 C52.9727626,59.4086641 52.0700389,60.3114155 52.0700389,61.6655427 L52.0700389,98.6783515 L32.4357977,98.6783515 C31.0817121,98.6783515 30.1789883,99.5811029 30.1789883,100.93523 L30.1789883,182.408547 L17.540856,182.408547 L17.540856,176.314975 C22.9571984,175.412223 27.0194553,170.672778 27.0194553,165.030582 C27.0194553,158.711322 21.8287938,153.520501 15.5097276,153.520501 C9.19066148,153.520501 4,158.711322 4,165.030582 C4,170.672778 7.83657588,175.186536 13.0272374,176.314975 L13.0272374,182.408547 L9.19066148,182.408547 C7.83657588,182.408547 6.93385214,183.311298 6.93385214,184.665426 C6.93385214,186.019553 7.83657588,186.922304 9.19066148,186.922304 L171.455253,186.922304 C172.809339,186.922304 173.712062,186.019553 173.712062,184.665426 C173.712062,183.311298 172.809339,182.408547 171.455253,182.408547 L168.521401,182.408547 L168.521401,176.766351 C173.712062,175.863599 177.774319,171.349842 177.774319,165.707645 C177.548638,159.162698 172.583658,154.197565 166.490272,154.197565 Z M8.51361868,164.804894 C8.51361868,160.9682 11.6731518,157.80857 15.5097276,157.80857 C19.3463035,157.80857 22.5058366,160.9682 22.5058366,164.804894 C22.5058366,168.641588 19.3463035,171.801218 15.5097276,171.801218 C11.6731518,171.801218 8.51361868,168.641588 8.51361868,164.804894 Z M116.163424,55.1205948 L148.661479,55.1205948 L148.661479,182.182859 L134.669261,182.182859 L134.669261,85.3627678 C134.669261,84.0086407 133.766537,83.1058892 132.412451,83.1058892 L116.163424,83.1058892 L116.163424,55.1205948 Z M101.719844,61.6655427 L103.299611,61.6655427 L104.879377,83.1058892 L100.365759,83.1058892 L101.719844,61.6655427 Z M130.155642,87.6196464 L130.155642,182.182859 L120.451362,182.182859 L120.451362,171.801218 C120.451362,167.061773 116.614786,163.225079 111.875486,163.225079 C107.136187,163.225079 103.299611,167.061773 103.299611,171.801218 L103.299611,182.182859 L93.5953307,182.182859 L93.5953307,87.6196464 L130.155642,87.6196464 Z M115.937743,182.182859 L108.038911,182.182859 L108.038911,171.801218 C108.038911,169.544339 109.844358,167.738836 112.101167,167.738836 C114.357977,167.738836 116.163424,169.544339 116.163424,171.801218 L116.163424,182.182859 L115.937743,182.182859 Z M56.5836576,63.6967334 L89.0817121,63.6967334 L89.0817121,181.957171 L75.540856,181.957171 L75.540856,100.709542 C75.540856,99.3554151 74.6381323,98.4526636 73.2840467,98.4526636 L56.5836576,98.4526636 L56.5836576,63.6967334 Z M34.9182879,102.966421 L71.2529183,102.966421 L71.2529183,182.182859 L60.6459144,182.182859 L60.6459144,171.801218 C60.6459144,167.061773 56.8093385,163.225079 52.0700389,163.225079 C47.3307393,163.225079 43.4941634,167.061773 43.4941634,171.801218 L43.4941634,182.182859 L34.692607,182.182859 L34.692607,102.966421 L34.9182879,102.966421 Z M56.1322957,182.182859 L48.233463,182.182859 L48.233463,171.801218 C48.233463,169.544339 50.0389105,167.738836 52.2957198,167.738836 C54.5525292,167.738836 56.3579767,169.544339 56.3579767,171.801218 L56.3579767,182.182859 L56.1322957,182.182859 Z M166.490272,172.026906 C162.879377,172.026906 159.719844,169.092963 159.719844,165.25627 C159.719844,161.419576 162.653696,158.485634 166.490272,158.485634 C170.101167,158.485634 173.2607,161.419576 173.2607,165.25627 C173.2607,169.092963 170.101167,172.026906 166.490272,172.026906 Z" id="Shape" fill="#1F2026"></path>
                    <path d="M4.9703543,117 C5.4967462,117 6.00289226,116.801379 6.40780911,116.424 C7.19739696,115.649379 7.19739696,114.398069 6.40780911,113.623448 C3.2494577,110.524966 3.2494577,105.48 6.40780911,102.381517 C7.19739696,101.606897 7.19739696,100.355586 6.40780911,99.5809655 C5.61822126,98.8063448 4.34273319,98.8063448 3.55314534,99.5809655 C-1.18438178,104.22869 -1.18438178,111.796138 3.55314534,116.443862 C3.93781634,116.801379 4.46420824,117 4.9703543,117 Z" id="Shape" fill="#1F2026"></path>
                    <path d="M12.0959164,113 C12.5897436,113 13.0645774,112.802469 13.4444444,112.42716 C14.1851852,111.65679 14.1851852,110.412346 13.4444444,109.641975 C12.5707502,108.733333 12.5707502,107.271605 13.4444444,106.362963 C14.1851852,105.592593 14.1851852,104.348148 13.4444444,103.577778 C12.7037037,102.807407 11.5071225,102.807407 10.7663818,103.577778 C8.41120608,106.02716 8.41120608,109.997531 10.7663818,112.446914 C11.1272555,112.802469 11.6210826,113 12.0959164,113 Z" id="Shape" fill="#1F2026"></path>
                </g>
            </g>
        </g>
    </g>
</svg>