<?xml version="1.0" encoding="UTF-8"?>
<svg width="208px" height="61px" viewBox="0 0 208 61" version="1.1" xmlns="http://www.w3.org/2000/svg" xmlns:xlink="http://www.w3.org/1999/xlink">
    <!-- Generator: Sketch 42 (36781) - http://www.bohemiancoding.com/sketch -->
    <title>bs-k</title>
    <desc>Created with Sketch.</desc>
    <defs></defs>
    <g id="Page-1" stroke="none" stroke-width="1" fill="none" fill-rule="evenodd">
        <g id="bs-k">
            <g id="Group">
                <path d="M192.290526,45.5321429 L186.433684,44.0616071 C184.463158,43.5714286 182.766316,42.6455357 182.766316,40.3580357 C182.766316,36.7089286 185.667368,35.5107143 188.787368,35.5107143 C192.181053,35.5107143 195.246316,37.4169643 195.355789,41.1205357 L197.654737,41.1205357 C197.709474,36.1098214 193.494737,33.55 188.732632,33.55 C181.945263,33.55 180.412632,38.0160714 180.412632,40.4125 C180.412632,44.225 182.985263,45.5866071 185.831579,46.2946429 L191.195789,47.6017857 C193.44,48.1464286 196.176842,49.2357143 196.176842,52.0133929 C196.176842,55.5535714 192.345263,56.9696429 189.772632,56.9696429 C189.389474,56.9696429 189.006316,56.9696429 188.677895,56.9151786 L188.677895,58.9303571 L189.225263,58.9303571 C197.764211,58.9303571 198.421053,53.6473214 198.421053,51.9589286 C198.530526,47.9830357 195.684211,46.4580357 192.290526,45.5321429 L192.290526,45.5321429 Z" id="Shape" fill="#FFFFFF"></path>
                <polygon id="Shape" fill="#FFFFFF" points="169.301053 34.2580357 169.301053 54.51875 169.246316 54.51875 155.178947 34.2580357 152.661053 34.2580357 152.661053 44.60625 154.905263 44.60625 154.905263 37.9071429 155.014737 37.9071429 169.027368 58.2223214 171.6 58.2223214 171.6 34.2580357"></polygon>
                <path d="M133.010526,33.7133929 C125.566316,33.7133929 121.789474,39.4321429 121.625263,45.8589286 L123.924211,45.8589286 C124.033684,40.7392857 126.770526,35.6741071 133.010526,35.6741071 C139.36,35.6741071 142.042105,40.9571429 142.042105,46.2401786 C142.042105,51.46875 139.36,56.80625 133.010526,56.80625 L133.010526,56.80625 L133.010526,58.7669643 L133.010526,58.7669643 C140.564211,58.7669643 144.341053,52.8303571 144.341053,46.2946429 C144.341053,39.7589286 140.564211,33.7133929 133.010526,33.7133929 L133.010526,33.7133929 Z" id="Shape" fill="#FFFFFF"></path>
                <polygon id="Shape" fill="#FFFFFF" points="111.170526 34.3125 113.469474 34.3125 113.469474 52.9392857 111.170526 52.9392857"></polygon>
                <path d="M70.1178947,45.5321429 L64.2610526,44.0616071 C62.2905263,43.5714286 60.5936842,42.6455357 60.5936842,40.3580357 C60.5936842,36.7089286 63.4947368,35.5107143 66.6147368,35.5107143 C70.0084211,35.5107143 73.0736842,37.4169643 73.1831579,41.1205357 L75.4821053,41.1205357 C75.5368421,36.1098214 71.3221053,33.55 66.56,33.55 C59.7726316,33.55 58.24,38.0160714 58.24,40.4125 C58.24,44.225 60.8126316,45.5866071 63.6589474,46.2946429 L69.0231579,47.6017857 C71.2673684,48.1464286 74.0042105,49.2357143 74.0042105,52.0133929 C74.0042105,55.5535714 70.1726316,56.9696429 67.6,56.9696429 C67.2168421,56.9696429 66.8336842,56.9696429 66.5052632,56.9151786 L66.5052632,58.9303571 L67.0526316,58.9303571 C75.5915789,58.9303571 76.2484211,53.6473214 76.2484211,51.9589286 C76.3578947,47.9830357 73.5115789,46.4580357 70.1178947,45.5321429 L70.1178947,45.5321429 Z" id="Shape" fill="#FFFFFF"></path>
                <path d="M96.5010526,45.5321429 L90.6442105,44.0616071 C88.6736842,43.5714286 86.9768421,42.6455357 86.9768421,40.3580357 C86.9768421,36.7089286 89.8778947,35.5107143 92.9978947,35.5107143 C96.3915789,35.5107143 99.4568421,37.4169643 99.5663158,41.1205357 L101.865263,41.1205357 C101.92,36.1098214 97.7052632,33.55 92.9431579,33.55 C86.1557895,33.55 84.6231579,38.0160714 84.6231579,40.4125 C84.6231579,44.225 87.1957895,45.5866071 90.0421053,46.2946429 L95.4063158,47.6017857 C97.6505263,48.1464286 100.387368,49.2357143 100.387368,52.0133929 C100.387368,55.5535714 96.5557895,56.9696429 93.9831579,56.9696429 C93.6,56.9696429 93.2168421,56.9696429 92.8884211,56.9151786 L92.8884211,58.9303571 L93.4357895,58.9303571 C101.974737,58.9303571 102.631579,53.6473214 102.631579,51.9589286 C102.741053,47.9830357 99.9494737,46.4580357 96.5010526,45.5321429 L96.5010526,45.5321429 Z" id="Shape" fill="#FFFFFF"></path>
                <polygon id="Shape" fill="#FFFFFF" points="34.1557895 34.2035714 50.7957895 34.2035714 50.7957895 36.1642857 36.4547368 36.1642857 36.4547368 44.8241071 49.8652632 44.8241071 49.8652632 46.7848214 36.4547368 46.7848214 36.4547368 56.2616071 50.96 56.2616071 50.96 58.2223214 34.1557895 58.2223214"></polygon>
                <path d="M19.5957895,46.13125 L13.7389474,44.6607143 C11.7684211,44.1705357 10.0715789,43.2446429 10.0715789,40.9571429 C10.0715789,37.3080357 12.9726316,36.1098214 16.0926316,36.1098214 C19.4863158,36.1098214 22.5515789,38.0160714 22.6610526,41.7196429 L24.96,41.7196429 C25.0147368,36.7089286 20.8,34.1491071 16.0378947,34.1491071 C9.25052632,34.1491071 7.71789474,38.6151786 7.71789474,41.0116071 C7.71789474,44.8241071 10.2905263,46.1857143 13.1368421,46.89375 L18.5010526,48.2008929 C20.7452632,48.7455357 23.4821053,49.8348214 23.4821053,52.6125 C23.4821053,56.1526786 19.6505263,57.56875 17.0778947,57.56875 C16.6947368,57.56875 16.3115789,57.56875 15.9831579,57.5142857 L15.9831579,59.5294643 L16.5305263,59.5294643 C25.0694737,59.5294643 25.7263158,54.2464286 25.7263158,52.5580357 C25.8357895,48.5821429 23.0442105,47.0571429 19.5957895,46.13125 L19.5957895,46.13125 Z" id="Shape" fill="#FFFFFF"></path>
                <polygon id="Shape" fill="#FFFFFF" points="146.913684 7.29821429 146.913684 27.5589286 146.858947 27.5589286 132.791579 7.29821429 130.218947 7.29821429 146.64 31.2625 149.212632 31.2625 149.212632 7.29821429"></polygon>
                <polygon id="Shape" fill="#FFFFFF" points="111.170526 7.29821429 113.469474 7.29821429 113.469474 25.925 111.170526 25.925"></polygon>
                <polygon id="Shape" fill="#FFFFFF" points="84.8968421 7.29821429 82.6526316 7.29821429 88.1810526 21.8946429 78.4926316 21.8946429 78.4926316 23.8008929 88.9473684 23.8008929 91.9031579 31.2625 94.3663158 31.2625"></polygon>
                <path d="M62.0168421,25.1080357 C61.8526316,22.2758929 60.9221053,20.0973214 57.8021053,19.7160714 L57.8021053,19.6616071 C60.9221053,19.0625 62.5094737,16.5571429 62.5094737,13.5616071 C62.5094737,9.20446429 59.1705263,7.29821429 55.1747368,7.29821429 L44.1178947,7.29821429 L44.1178947,23.0928571 L46.4168421,23.0928571 L46.4168421,20.6419643 L55.12,20.6419643 C59.4989474,20.4785714 59.7178947,24.1821429 59.9368421,27.5589286 C59.9915789,28.5392857 59.9915789,30.3366071 60.5936842,31.2625 L63.1115789,31.2625 C62.0715789,30.0642857 62.0715789,26.7964286 62.0168421,25.1080357 L62.0168421,25.1080357 Z M54.9557895,18.68125 L46.4168421,18.68125 L46.4168421,9.25892857 L55.0105263,9.25892857 C58.4589474,9.25892857 60.2105263,11.1107143 60.2105263,14.0517857 C60.1557895,16.9383929 57.7473684,18.68125 54.9557895,18.68125 L54.9557895,18.68125 Z" id="Shape" fill="#FFFFFF"></path>
                <path d="M21.3473684,18.6267857 L21.3473684,18.5723214 C23.8652632,18.0276786 25.5073684,15.7401786 25.5073684,13.1803571 C25.5073684,8.71428571 21.84,7.29821429 17.7894737,7.29821429 L7.60842105,7.29821429 L7.60842105,19.7705357 L9.90736842,19.7705357 L9.90736842,19.7705357 L17.7894737,19.7705357 C21.7852632,19.7705357 24.1389474,21.35 24.1389474,24.4 C24.1389474,28.2125 21.1831579,29.35625 17.7894737,29.35625 L15.9831579,29.35625 L15.9831579,31.3169643 L17.7894737,31.3169643 C25.6168421,31.3169643 26.4378947,26.7964286 26.4378947,24.5089286 C26.4378947,21.35 24.4673684,19.0080357 21.3473684,18.6267857 L21.3473684,18.6267857 Z M9.90736842,17.8098214 L9.90736842,9.25892857 L17.7894737,9.25892857 C21.3473684,9.25892857 23.2084211,10.7839286 23.2084211,13.7794643 C23.2084211,16.0125 21.4568421,17.8642857 17.7894737,17.8642857 L9.90736842,17.8642857 L9.90736842,17.8098214 Z" id="Shape" fill="#FFFFFF"></path>
                <g transform="translate(126.442105, 55.553571)" fill="#F5B11A">
                    <ellipse id="Oval" cx="1.36842105" cy="1.47053571" rx="0.930526316" ry="0.925892857"></ellipse>
                    <path d="M1.36842105,2.45089286 C0.821052632,2.45089286 0.383157895,2.01517857 0.383157895,1.47053571 C0.383157895,0.925892857 0.821052632,0.490178571 1.36842105,0.490178571 C1.91578947,0.490178571 2.35368421,0.925892857 2.35368421,1.47053571 C2.35368421,2.01517857 1.91578947,2.45089286 1.36842105,2.45089286 L1.36842105,2.45089286 Z M1.36842105,0.653571429 C0.875789474,0.653571429 0.492631579,1.03482143 0.492631579,1.525 C0.492631579,2.01517857 0.875789474,2.39642857 1.36842105,2.39642857 C1.86105263,2.39642857 2.24421053,2.01517857 2.24421053,1.525 C2.24421053,1.03482143 1.86105263,0.653571429 1.36842105,0.653571429 L1.36842105,0.653571429 Z" id="Shape"></path>
                </g>
                <g transform="translate(101.810526, 16.883929)" fill="#F5B11A">
                    <ellipse id="Oval" cx="1.42315789" cy="1.14375" rx="0.930526316" ry="0.925892857"></ellipse>
                    <path d="M1.42315789,2.12410714 C0.875789474,2.12410714 0.437894737,1.68839286 0.437894737,1.14375 C0.437894737,0.599107143 0.875789474,0.163392857 1.42315789,0.163392857 C1.97052632,0.163392857 2.40842105,0.599107143 2.40842105,1.14375 C2.40842105,1.68839286 1.97052632,2.12410714 1.42315789,2.12410714 L1.42315789,2.12410714 Z M1.42315789,0.326785714 C0.930526316,0.326785714 0.547368421,0.708035714 0.547368421,1.19821429 C0.547368421,1.68839286 0.930526316,2.06964286 1.42315789,2.06964286 C1.91578947,2.06964286 2.29894737,1.68839286 2.29894737,1.19821429 C2.29894737,0.708035714 1.86105263,0.326785714 1.42315789,0.326785714 L1.42315789,0.326785714 Z" id="Shape"></path>
                </g>
                <g transform="translate(116.589474, 15.250000)" fill="#F5B11A">
                    <ellipse id="Oval" cx="1.31368421" cy="1.36160714" rx="0.930526316" ry="0.925892857"></ellipse>
                    <path d="M1.31368421,2.34196429 C0.766315789,2.34196429 0.328421053,1.90625 0.328421053,1.36160714 C0.328421053,0.816964286 0.766315789,0.38125 1.31368421,0.38125 C1.86105263,0.38125 2.29894737,0.816964286 2.29894737,1.36160714 C2.35368421,1.90625 1.86105263,2.34196429 1.31368421,2.34196429 L1.31368421,2.34196429 Z M1.31368421,0.490178571 C0.821052632,0.490178571 0.437894737,0.871428571 0.437894737,1.36160714 C0.437894737,1.85178571 0.821052632,2.23303571 1.31368421,2.23303571 C1.80631579,2.23303571 2.18947368,1.85178571 2.18947368,1.36160714 C2.18947368,0.871428571 1.80631579,0.490178571 1.31368421,0.490178571 L1.31368421,0.490178571 Z" id="Shape"></path>
                </g>
                <g transform="translate(144.505263, 33.767857)" fill="#F16956">
                    <ellipse id="Oval" cx="1.09473684" cy="1.41607143" rx="0.930526316" ry="0.925892857"></ellipse>
                    <path d="M1.09473684,2.39642857 C0.547368421,2.39642857 0.109473684,1.96071429 0.109473684,1.41607143 C0.109473684,0.871428571 0.547368421,0.435714286 1.09473684,0.435714286 C1.64210526,0.435714286 2.08,0.871428571 2.08,1.41607143 C2.08,1.96071429 1.64210526,2.39642857 1.09473684,2.39642857 L1.09473684,2.39642857 Z M1.09473684,0.544642857 C0.602105263,0.544642857 0.218947368,0.925892857 0.218947368,1.41607143 C0.218947368,1.90625 0.602105263,2.2875 1.09473684,2.2875 C1.58736842,2.2875 1.97052632,1.90625 1.97052632,1.41607143 C1.97052632,0.925892857 1.53263158,0.544642857 1.09473684,0.544642857 L1.09473684,0.544642857 Z" id="Shape"></path>
                </g>
                <g transform="translate(182.273684, 53.375000)" fill="#F5B11A">
                    <ellipse id="Oval" cx="1.31368421" cy="1.14375" rx="0.930526316" ry="0.925892857"></ellipse>
                    <path d="M1.31368421,2.12410714 C0.766315789,2.12410714 0.328421053,1.68839286 0.328421053,1.14375 C0.328421053,0.599107143 0.766315789,0.163392857 1.31368421,0.163392857 C1.86105263,0.163392857 2.29894737,0.599107143 2.29894737,1.14375 C2.29894737,1.68839286 1.86105263,2.12410714 1.31368421,2.12410714 L1.31368421,2.12410714 Z M1.31368421,0.326785714 C0.821052632,0.326785714 0.437894737,0.708035714 0.437894737,1.19821429 C0.437894737,1.68839286 0.821052632,2.06964286 1.31368421,2.06964286 C1.80631579,2.06964286 2.18947368,1.68839286 2.18947368,1.19821429 C2.18947368,0.708035714 1.75157895,0.326785714 1.31368421,0.326785714 L1.31368421,0.326785714 Z" id="Shape"></path>
                </g>
                <g transform="translate(152.715789, 51.196429)" fill="#F16956">
                    <ellipse id="Oval" cx="1.31368421" cy="1.08928571" rx="0.930526316" ry="0.925892857"></ellipse>
                    <path d="M1.31368421,2.06964286 C0.766315789,2.06964286 0.328421053,1.63392857 0.328421053,1.08928571 C0.328421053,0.544642857 0.766315789,0.108928571 1.31368421,0.108928571 C1.86105263,0.108928571 2.29894737,0.544642857 2.29894737,1.08928571 C2.29894737,1.63392857 1.86105263,2.06964286 1.31368421,2.06964286 L1.31368421,2.06964286 Z M1.31368421,0.217857143 C0.821052632,0.217857143 0.437894737,0.599107143 0.437894737,1.08928571 C0.437894737,1.57946429 0.821052632,1.96071429 1.31368421,1.96071429 C1.80631579,1.96071429 2.18947368,1.57946429 2.18947368,1.08928571 C2.13473684,0.599107143 1.75157895,0.217857143 1.31368421,0.217857143 L1.31368421,0.217857143 Z" id="Shape"></path>
                </g>
                <g transform="translate(39.410526, 24.508929)" fill="#F16956">
                    <ellipse id="Oval" cx="0.985263158" cy="1.36160714" rx="0.930526316" ry="0.925892857"></ellipse>
                    <path d="M0.985263158,2.34196429 C0.437894737,2.34196429 0,1.90625 0,1.36160714 C0,0.816964286 0.437894737,0.38125 0.985263158,0.38125 C1.53263158,0.38125 1.97052632,0.816964286 1.97052632,1.36160714 C1.97052632,1.90625 1.53263158,2.34196429 0.985263158,2.34196429 L0.985263158,2.34196429 Z M0.985263158,0.544642857 C0.492631579,0.544642857 0.109473684,0.925892857 0.109473684,1.41607143 C0.109473684,1.90625 0.492631579,2.2875 0.985263158,2.2875 C1.47789474,2.2875 1.86105263,1.90625 1.86105263,1.41607143 C1.80631579,0.925892857 1.42315789,0.544642857 0.985263158,0.544642857 L0.985263158,0.544642857 Z" id="Shape"></path>
                </g>
                <g transform="translate(29.010526, 40.303571)" fill="#F5B11A">
                    <ellipse id="Oval" cx="1.09473684" cy="1.36160714" rx="0.930526316" ry="0.925892857"></ellipse>
                    <path d="M1.09473684,2.34196429 C0.547368421,2.34196429 0.109473684,1.90625 0.109473684,1.36160714 C0.109473684,0.816964286 0.547368421,0.38125 1.09473684,0.38125 C1.64210526,0.38125 2.08,0.816964286 2.08,1.36160714 C2.08,1.90625 1.64210526,2.34196429 1.09473684,2.34196429 L1.09473684,2.34196429 Z M1.09473684,0.490178571 C0.602105263,0.490178571 0.218947368,0.871428571 0.218947368,1.36160714 C0.218947368,1.85178571 0.602105263,2.23303571 1.09473684,2.23303571 C1.58736842,2.23303571 1.97052632,1.85178571 1.97052632,1.36160714 C1.97052632,0.871428571 1.53263158,0.490178571 1.09473684,0.490178571 L1.09473684,0.490178571 Z" id="Shape"></path>
                </g>
                <g transform="translate(104.000000, 20.696429)" fill="#3EBFC0">
                    <ellipse id="Oval" cx="0.547368421" cy="0.816964286" rx="0.437894737" ry="0.435714286"></ellipse>
                    <path d="M0.547368421,1.36160714 C0.273684211,1.36160714 0,1.14375 0,0.816964286 C0,0.490178571 0.218947368,0.272321429 0.547368421,0.272321429 C0.821052632,0.272321429 1.09473684,0.490178571 1.09473684,0.816964286 C1.09473684,1.14375 0.821052632,1.36160714 0.547368421,1.36160714 L0.547368421,1.36160714 Z M0.547368421,0.435714286 C0.328421053,0.435714286 0.164210526,0.599107143 0.164210526,0.816964286 C0.164210526,1.03482143 0.328421053,1.19821429 0.547368421,1.19821429 C0.766315789,1.19821429 0.930526316,1.03482143 0.930526316,0.816964286 C0.930526316,0.599107143 0.766315789,0.435714286 0.547368421,0.435714286 L0.547368421,0.435714286 Z" id="Shape"></path>
                </g>
                <g transform="translate(180.084211, 49.562500)" fill="#383838">
                    <ellipse id="Oval" cx="0.766315789" cy="0.980357143" rx="0.437894737" ry="0.435714286"></ellipse>
                    <path d="M0.766315789,1.47053571 C0.492631579,1.47053571 0.218947368,1.25267857 0.218947368,0.925892857 C0.218947368,0.653571429 0.437894737,0.38125 0.766315789,0.38125 C1.04,0.38125 1.31368421,0.599107143 1.31368421,0.925892857 C1.31368421,1.25267857 1.04,1.47053571 0.766315789,1.47053571 L0.766315789,1.47053571 Z M0.766315789,0.544642857 C0.547368421,0.544642857 0.383157895,0.708035714 0.383157895,0.925892857 C0.383157895,1.14375 0.547368421,1.30714286 0.766315789,1.30714286 C0.985263158,1.30714286 1.14947368,1.14375 1.14947368,0.925892857 C1.14947368,0.7625 0.985263158,0.544642857 0.766315789,0.544642857 L0.766315789,0.544642857 Z" id="Shape"></path>
                </g>
                <g transform="translate(125.894737, 5.446429)" fill="#F16956">
                    <ellipse id="Oval" cx="1.42315789" cy="1.36160714" rx="0.930526316" ry="0.925892857"></ellipse>
                    <path d="M1.42315789,2.34196429 C0.875789474,2.34196429 0.437894737,1.90625 0.437894737,1.36160714 C0.437894737,0.816964286 0.875789474,0.38125 1.42315789,0.38125 C1.97052632,0.38125 2.40842105,0.816964286 2.40842105,1.36160714 C2.46315789,1.90625 1.97052632,2.34196429 1.42315789,2.34196429 L1.42315789,2.34196429 Z M1.42315789,0.490178571 C0.930526316,0.490178571 0.547368421,0.871428571 0.547368421,1.36160714 C0.547368421,1.85178571 0.930526316,2.23303571 1.42315789,2.23303571 C1.91578947,2.23303571 2.29894737,1.85178571 2.29894737,1.36160714 C2.29894737,0.871428571 1.91578947,0.490178571 1.42315789,0.490178571 L1.42315789,0.490178571 Z" id="Shape"></path>
                </g>
                <g transform="translate(129.726316, 13.616071)" fill="#3EBFC0">
                    <ellipse id="Oval" cx="0.930526316" cy="1.03482143" rx="0.437894737" ry="0.435714286"></ellipse>
                    <path d="M0.930526316,1.57946429 C0.656842105,1.57946429 0.383157895,1.36160714 0.383157895,1.03482143 C0.383157895,0.7625 0.602105263,0.490178571 0.930526316,0.490178571 C1.20421053,0.490178571 1.47789474,0.708035714 1.47789474,1.03482143 C1.47789474,1.30714286 1.25894737,1.57946429 0.930526316,1.57946429 L0.930526316,1.57946429 Z M0.930526316,0.653571429 C0.711578947,0.653571429 0.547368421,0.816964286 0.547368421,1.03482143 C0.547368421,1.25267857 0.711578947,1.41607143 0.930526316,1.41607143 C1.14947368,1.41607143 1.31368421,1.25267857 1.31368421,1.03482143 C1.31368421,0.816964286 1.14947368,0.653571429 0.930526316,0.653571429 L0.930526316,0.653571429 Z" id="Shape"></path>
                </g>
                <g transform="translate(126.442105, 20.151786)" fill="#383838">
                    <ellipse id="Oval" cx="0.547368421" cy="1.08928571" rx="0.437894737" ry="0.435714286"></ellipse>
                    <path d="M0.547368421,1.57946429 C0.273684211,1.57946429 0,1.36160714 0,1.03482143 C0,0.7625 0.218947368,0.490178571 0.547368421,0.490178571 C0.875789474,0.490178571 1.09473684,0.708035714 1.09473684,1.03482143 C1.09473684,1.36160714 0.875789474,1.57946429 0.547368421,1.57946429 L0.547368421,1.57946429 Z M0.547368421,0.708035714 C0.328421053,0.708035714 0.164210526,0.871428571 0.164210526,1.08928571 C0.164210526,1.30714286 0.328421053,1.47053571 0.547368421,1.47053571 C0.766315789,1.47053571 0.930526316,1.30714286 0.930526316,1.08928571 C0.985263158,0.871428571 0.766315789,0.708035714 0.547368421,0.708035714 L0.547368421,0.708035714 Z" id="Shape"></path>
                </g>
                <g transform="translate(134.652632, 2.723214)" fill="#383838">
                    <ellipse id="Oval" cx="0.985263158" cy="0.708035714" rx="0.437894737" ry="0.435714286"></ellipse>
                    <path d="M0.985263158,1.19821429 C0.711578947,1.19821429 0.437894737,0.980357143 0.437894737,0.653571429 C0.437894737,0.38125 0.656842105,0.108928571 0.985263158,0.108928571 C1.25894737,0.108928571 1.53263158,0.326785714 1.53263158,0.653571429 C1.53263158,0.980357143 1.25894737,1.19821429 0.985263158,1.19821429 L0.985263158,1.19821429 Z M0.985263158,0.326785714 C0.766315789,0.326785714 0.602105263,0.490178571 0.602105263,0.708035714 C0.602105263,0.925892857 0.766315789,1.08928571 0.985263158,1.08928571 C1.20421053,1.08928571 1.36842105,0.925892857 1.36842105,0.708035714 C1.36842105,0.490178571 1.20421053,0.326785714 0.985263158,0.326785714 L0.985263158,0.326785714 Z" id="Shape"></path>
                </g>
                <g transform="translate(112.210526, 29.410714)" fill="#383838">
                    <ellipse id="Oval" cx="0.656842105" cy="0.653571429" rx="0.437894737" ry="0.435714286"></ellipse>
                    <path d="M0.656842105,1.14375 C0.383157895,1.14375 0.109473684,0.925892857 0.109473684,0.599107143 C0.109473684,0.326785714 0.328421053,0.0544642857 0.656842105,0.0544642857 C0.985263158,0.0544642857 1.20421053,0.272321429 1.20421053,0.599107143 C1.20421053,0.925892857 0.985263158,1.14375 0.656842105,1.14375 L0.656842105,1.14375 Z M0.656842105,0.272321429 C0.437894737,0.272321429 0.273684211,0.435714286 0.273684211,0.653571429 C0.273684211,0.871428571 0.437894737,1.03482143 0.656842105,1.03482143 C0.875789474,1.03482143 1.04,0.871428571 1.04,0.653571429 C1.04,0.435714286 0.875789474,0.272321429 0.656842105,0.272321429 L0.656842105,0.272321429 Z" id="Shape"></path>
                </g>
                <g transform="translate(111.663158, 57.187500)" fill="#3EBFC0">
                    <ellipse id="Oval" cx="0.656842105" cy="0.544642857" rx="0.437894737" ry="0.435714286"></ellipse>
                    <path d="M0.656842105,1.08928571 C0.383157895,1.08928571 0.109473684,0.871428571 0.109473684,0.544642857 C0.109473684,0.272321429 0.328421053,0 0.656842105,0 C0.985263158,0 1.20421053,0.217857143 1.20421053,0.544642857 C1.14947368,0.816964286 0.930526316,1.08928571 0.656842105,1.08928571 L0.656842105,1.08928571 Z M0.656842105,0.163392857 C0.437894737,0.163392857 0.273684211,0.326785714 0.273684211,0.544642857 C0.273684211,0.7625 0.437894737,0.925892857 0.656842105,0.925892857 C0.875789474,0.925892857 1.04,0.7625 1.04,0.544642857 C1.04,0.326785714 0.821052632,0.163392857 0.656842105,0.163392857 L0.656842105,0.163392857 Z" id="Shape"></path>
                </g>
                <g transform="translate(117.136842, 51.196429)" fill="#F16956">
                    <ellipse id="Oval" cx="0.547368421" cy="0.816964286" rx="0.437894737" ry="0.435714286"></ellipse>
                    <path d="M0.547368421,1.30714286 C0.273684211,1.30714286 0,1.08928571 0,0.7625 C0,0.490178571 0.218947368,0.217857143 0.547368421,0.217857143 C0.821052632,0.217857143 1.09473684,0.435714286 1.09473684,0.7625 C1.09473684,1.08928571 0.875789474,1.30714286 0.547368421,1.30714286 L0.547368421,1.30714286 Z M0.547368421,0.38125 C0.328421053,0.38125 0.164210526,0.544642857 0.164210526,0.7625 C0.164210526,0.980357143 0.328421053,1.14375 0.547368421,1.14375 C0.766315789,1.14375 0.930526316,0.980357143 0.930526316,0.7625 C0.930526316,0.599107143 0.766315789,0.38125 0.547368421,0.38125 L0.547368421,0.38125 Z" id="Shape"></path>
                </g>
                <g transform="translate(151.621053, 19.062500)" fill="#F5B11A">
                    <ellipse id="Oval" cx="0.821052632" cy="0.871428571" rx="0.766315789" ry="0.7625"></ellipse>
                    <path d="M0.821052632,1.68839286 C0.383157895,1.68839286 0,1.30714286 0,0.871428571 C0,0.435714286 0.383157895,0.0544642857 0.821052632,0.0544642857 C1.25894737,0.0544642857 1.64210526,0.435714286 1.64210526,0.871428571 C1.58736842,1.36160714 1.25894737,1.68839286 0.821052632,1.68839286 L0.821052632,1.68839286 Z M0.821052632,0.217857143 C0.437894737,0.217857143 0.164210526,0.544642857 0.164210526,0.871428571 C0.164210526,1.25267857 0.492631579,1.525 0.821052632,1.525 C1.20421053,1.525 1.47789474,1.19821429 1.47789474,0.871428571 C1.47789474,0.544642857 1.14947368,0.217857143 0.821052632,0.217857143 L0.821052632,0.217857143 Z" id="Shape"></path>
                </g>
                <g transform="translate(7.115789, 0.000000)" fill="#F5B11A">
                    <ellipse id="Oval" cx="1.04" cy="1.14375" rx="0.930526316" ry="0.925892857"></ellipse>
                    <path d="M1.04,2.12410714 C0.492631579,2.12410714 0.0547368421,1.68839286 0.0547368421,1.14375 C0.0547368421,0.599107143 0.492631579,0.163392857 1.04,0.163392857 C1.58736842,0.163392857 2.02526316,0.599107143 2.02526316,1.14375 C2.08,1.68839286 1.58736842,2.12410714 1.04,2.12410714 L1.04,2.12410714 Z M1.04,0.326785714 C0.547368421,0.326785714 0.164210526,0.708035714 0.164210526,1.19821429 C0.164210526,1.68839286 0.547368421,2.06964286 1.04,2.06964286 C1.53263158,2.06964286 1.91578947,1.68839286 1.91578947,1.19821429 C1.91578947,0.708035714 1.53263158,0.326785714 1.04,0.326785714 L1.04,0.326785714 Z" id="Shape"></path>
                </g>
                <g transform="translate(173.515789, 28.321429)" fill="#F16956">
                    <ellipse id="Oval" cx="1.04" cy="1.41607143" rx="0.930526316" ry="0.925892857"></ellipse>
                    <path d="M1.04,2.39642857 C0.492631579,2.39642857 0.0547368421,1.96071429 0.0547368421,1.41607143 C0.0547368421,0.871428571 0.492631579,0.435714286 1.04,0.435714286 C1.58736842,0.435714286 2.02526316,0.871428571 2.02526316,1.41607143 C2.02526316,1.96071429 1.58736842,2.39642857 1.04,2.39642857 L1.04,2.39642857 Z M1.04,0.544642857 C0.547368421,0.544642857 0.164210526,0.925892857 0.164210526,1.41607143 C0.164210526,1.90625 0.547368421,2.2875 1.04,2.2875 C1.53263158,2.2875 1.91578947,1.90625 1.91578947,1.41607143 C1.91578947,0.925892857 1.53263158,0.544642857 1.04,0.544642857 L1.04,0.544642857 Z" id="Shape"></path>
                </g>
                <g transform="translate(200.884211, 44.116071)" fill="#F16956">
                    <ellipse id="Oval" cx="1.20421053" cy="1.47053571" rx="0.930526316" ry="0.925892857"></ellipse>
                    <path d="M1.20421053,2.45089286 C0.656842105,2.45089286 0.218947368,2.01517857 0.218947368,1.47053571 C0.218947368,0.925892857 0.656842105,0.490178571 1.20421053,0.490178571 C1.75157895,0.490178571 2.18947368,0.925892857 2.18947368,1.47053571 C2.18947368,2.01517857 1.75157895,2.45089286 1.20421053,2.45089286 L1.20421053,2.45089286 Z M1.20421053,0.653571429 C0.711578947,0.653571429 0.328421053,1.03482143 0.328421053,1.525 C0.328421053,2.01517857 0.711578947,2.39642857 1.20421053,2.39642857 C1.69684211,2.39642857 2.08,2.01517857 2.08,1.525 C2.08,1.03482143 1.69684211,0.653571429 1.20421053,0.653571429 L1.20421053,0.653571429 Z" id="Shape"></path>
                </g>
                <g transform="translate(206.905263, 56.642857)" fill="#3EBFC0">
                    <ellipse id="Oval" cx="0.547368421" cy="0.708035714" rx="0.437894737" ry="0.435714286"></ellipse>
                    <path d="M0.547368421,1.25267857 C0.273684211,1.25267857 0,1.03482143 0,0.708035714 C0,0.38125 0.218947368,0.163392857 0.547368421,0.163392857 C0.821052632,0.163392857 1.09473684,0.38125 1.09473684,0.708035714 C1.09473684,1.03482143 0.875789474,1.25267857 0.547368421,1.25267857 L0.547368421,1.25267857 Z M0.547368421,0.326785714 C0.328421053,0.326785714 0.164210526,0.490178571 0.164210526,0.708035714 C0.164210526,0.925892857 0.328421053,1.08928571 0.547368421,1.08928571 C0.766315789,1.08928571 0.930526316,0.925892857 0.930526316,0.708035714 C0.985263158,0.490178571 0.766315789,0.326785714 0.547368421,0.326785714 L0.547368421,0.326785714 Z" id="Shape"></path>
                </g>
                <g transform="translate(202.526316, 59.366071)" fill="#383838">
                    <ellipse id="Oval" cx="1.04" cy="0.653571429" rx="0.437894737" ry="0.435714286"></ellipse>
                    <path d="M1.04,1.19821429 C0.766315789,1.19821429 0.492631579,0.980357143 0.492631579,0.653571429 C0.492631579,0.38125 0.711578947,0.108928571 1.04,0.108928571 C1.36842105,0.108928571 1.58736842,0.326785714 1.58736842,0.653571429 C1.58736842,0.980357143 1.31368421,1.19821429 1.04,1.19821429 L1.04,1.19821429 Z M1.04,0.272321429 C0.821052632,0.272321429 0.656842105,0.435714286 0.656842105,0.653571429 C0.656842105,0.871428571 0.821052632,1.03482143 1.04,1.03482143 C1.25894737,1.03482143 1.42315789,0.871428571 1.42315789,0.653571429 C1.42315789,0.490178571 1.25894737,0.272321429 1.04,0.272321429 L1.04,0.272321429 Z" id="Shape"></path>
                </g>
                <g transform="translate(153.810526, 16.339286)" fill="#3EBFC0">
                    <ellipse id="Oval" cx="0.711578947" cy="0.708035714" rx="0.437894737" ry="0.435714286"></ellipse>
                    <path d="M0.711578947,1.25267857 C0.437894737,1.25267857 0.164210526,1.03482143 0.164210526,0.708035714 C0.164210526,0.38125 0.383157895,0.163392857 0.711578947,0.163392857 C0.985263158,0.163392857 1.25894737,0.38125 1.25894737,0.708035714 C1.25894737,1.03482143 1.04,1.25267857 0.711578947,1.25267857 L0.711578947,1.25267857 Z M0.711578947,0.326785714 C0.492631579,0.326785714 0.328421053,0.490178571 0.328421053,0.708035714 C0.328421053,0.925892857 0.492631579,1.08928571 0.711578947,1.08928571 C0.930526316,1.08928571 1.09473684,0.925892857 1.09473684,0.708035714 C1.09473684,0.490178571 0.930526316,0.326785714 0.711578947,0.326785714 L0.711578947,0.326785714 Z" id="Shape"></path>
                </g>
                <g transform="translate(169.684211, 26.687500)" fill="#F5B11A">
                    <ellipse id="Oval" cx="0.985263158" cy="0.925892857" rx="0.437894737" ry="0.435714286"></ellipse>
                    <path d="M0.985263158,1.41607143 C0.711578947,1.41607143 0.437894737,1.19821429 0.437894737,0.871428571 C0.437894737,0.599107143 0.656842105,0.326785714 0.985263158,0.326785714 C1.31368421,0.326785714 1.53263158,0.544642857 1.53263158,0.871428571 C1.53263158,1.19821429 1.25894737,1.41607143 0.985263158,1.41607143 L0.985263158,1.41607143 Z M0.985263158,0.490178571 C0.766315789,0.490178571 0.602105263,0.653571429 0.602105263,0.871428571 C0.602105263,1.08928571 0.766315789,1.25267857 0.985263158,1.25267857 C1.20421053,1.25267857 1.36842105,1.08928571 1.36842105,0.871428571 C1.36842105,0.708035714 1.20421053,0.490178571 0.985263158,0.490178571 L0.985263158,0.490178571 Z" id="Shape"></path>
                </g>
                <g transform="translate(149.431579, 36.491071)" fill="#383838">
                    <ellipse id="Oval" cx="0.711578947" cy="0.7625" rx="0.437894737" ry="0.435714286"></ellipse>
                    <path d="M0.711578947,1.30714286 C0.437894737,1.30714286 0.164210526,1.08928571 0.164210526,0.7625 C0.164210526,0.435714286 0.383157895,0.217857143 0.711578947,0.217857143 C1.04,0.217857143 1.25894737,0.435714286 1.25894737,0.7625 C1.25894737,1.08928571 0.985263158,1.30714286 0.711578947,1.30714286 L0.711578947,1.30714286 Z M0.711578947,0.38125 C0.492631579,0.38125 0.328421053,0.544642857 0.328421053,0.7625 C0.328421053,0.980357143 0.492631579,1.14375 0.711578947,1.14375 C0.930526316,1.14375 1.09473684,0.980357143 1.09473684,0.7625 C1.09473684,0.544642857 0.930526316,0.38125 0.711578947,0.38125 L0.711578947,0.38125 Z" id="Shape"></path>
                </g>
                <g transform="translate(194.863158, 24.508929)" fill="#3EBFC0">
                    <ellipse id="Oval" cx="0.930526316" cy="1.08928571" rx="0.437894737" ry="0.435714286"></ellipse>
                    <path d="M0.930526316,1.57946429 C0.656842105,1.57946429 0.383157895,1.36160714 0.383157895,1.03482143 C0.383157895,0.7625 0.602105263,0.490178571 0.930526316,0.490178571 C1.20421053,0.490178571 1.47789474,0.708035714 1.47789474,1.03482143 C1.47789474,1.36160714 1.25894737,1.57946429 0.930526316,1.57946429 L0.930526316,1.57946429 Z M0.930526316,0.653571429 C0.711578947,0.653571429 0.547368421,0.816964286 0.547368421,1.03482143 C0.547368421,1.25267857 0.711578947,1.41607143 0.930526316,1.41607143 C1.14947368,1.41607143 1.31368421,1.25267857 1.31368421,1.03482143 C1.31368421,0.871428571 1.14947368,0.653571429 0.930526316,0.653571429 L0.930526316,0.653571429 Z" id="Shape"></path>
                </g>
                <g transform="translate(5.473684, 29.410714)" fill="#383838">
                    <ellipse id="Oval" cx="0.985263158" cy="0.653571429" rx="0.437894737" ry="0.435714286"></ellipse>
                    <path d="M0.985263158,1.14375 C0.711578947,1.14375 0.437894737,0.925892857 0.437894737,0.599107143 C0.437894737,0.326785714 0.656842105,0.0544642857 0.985263158,0.0544642857 C1.25894737,0.0544642857 1.53263158,0.272321429 1.53263158,0.599107143 C1.53263158,0.925892857 1.25894737,1.14375 0.985263158,1.14375 L0.985263158,1.14375 Z M0.985263158,0.272321429 C0.766315789,0.272321429 0.602105263,0.435714286 0.602105263,0.653571429 C0.602105263,0.871428571 0.766315789,1.03482143 0.985263158,1.03482143 C1.20421053,1.03482143 1.36842105,0.871428571 1.36842105,0.653571429 C1.36842105,0.435714286 1.20421053,0.272321429 0.985263158,0.272321429 L0.985263158,0.272321429 Z" id="Shape"></path>
                </g>
                <g transform="translate(153.810526, 4.357143)" fill="#F16956">
                    <ellipse id="Oval" cx="0.711578947" cy="0.7625" rx="0.437894737" ry="0.435714286"></ellipse>
                    <path d="M0.711578947,1.30714286 C0.437894737,1.30714286 0.164210526,1.08928571 0.164210526,0.7625 C0.164210526,0.490178571 0.383157895,0.217857143 0.711578947,0.217857143 C0.985263158,0.217857143 1.25894737,0.435714286 1.25894737,0.7625 C1.25894737,1.03482143 1.04,1.30714286 0.711578947,1.30714286 L0.711578947,1.30714286 Z M0.711578947,0.38125 C0.492631579,0.38125 0.328421053,0.544642857 0.328421053,0.7625 C0.328421053,0.980357143 0.492631579,1.14375 0.711578947,1.14375 C0.930526316,1.14375 1.09473684,0.980357143 1.09473684,0.7625 C1.09473684,0.544642857 0.930526316,0.38125 0.711578947,0.38125 L0.711578947,0.38125 Z" id="Shape"></path>
                </g>
                <g transform="translate(190.484211, 28.866071)" fill="#383838">
                    <ellipse id="Oval" cx="0.656842105" cy="0.544642857" rx="0.437894737" ry="0.435714286"></ellipse>
                    <path d="M0.656842105,1.08928571 C0.383157895,1.08928571 0.109473684,0.871428571 0.109473684,0.544642857 C0.109473684,0.272321429 0.328421053,0 0.656842105,0 C0.930526316,0 1.20421053,0.217857143 1.20421053,0.544642857 C1.20421053,0.871428571 0.985263158,1.08928571 0.656842105,1.08928571 L0.656842105,1.08928571 Z M0.656842105,0.163392857 C0.437894737,0.163392857 0.273684211,0.326785714 0.273684211,0.544642857 C0.273684211,0.7625 0.437894737,0.925892857 0.656842105,0.925892857 C0.875789474,0.925892857 1.04,0.7625 1.04,0.544642857 C1.09473684,0.326785714 0.875789474,0.163392857 0.656842105,0.163392857 L0.656842105,0.163392857 Z" id="Shape"></path>
                </g>
                <g transform="translate(70.610526, 20.151786)" fill="#F5B11A">
                    <ellipse id="Oval" cx="1.31368421" cy="1.08928571" rx="0.930526316" ry="0.925892857"></ellipse>
                    <path d="M1.31368421,2.06964286 C0.766315789,2.06964286 0.328421053,1.63392857 0.328421053,1.08928571 C0.328421053,0.544642857 0.766315789,0.108928571 1.31368421,0.108928571 C1.86105263,0.108928571 2.29894737,0.544642857 2.29894737,1.08928571 C2.29894737,1.63392857 1.86105263,2.06964286 1.31368421,2.06964286 L1.31368421,2.06964286 Z M1.31368421,0.217857143 C0.821052632,0.217857143 0.437894737,0.599107143 0.437894737,1.08928571 C0.437894737,1.57946429 0.821052632,1.96071429 1.31368421,1.96071429 C1.80631579,1.96071429 2.18947368,1.57946429 2.18947368,1.08928571 C2.18947368,0.599107143 1.80631579,0.217857143 1.31368421,0.217857143 L1.31368421,0.217857143 Z" id="Shape"></path>
                </g>
                <g transform="translate(73.894737, 17.428571)" fill="#383838">
                    <ellipse id="Oval" cx="0.985263158" cy="0.925892857" rx="0.437894737" ry="0.435714286"></ellipse>
                    <path d="M0.985263158,1.47053571 C0.711578947,1.47053571 0.437894737,1.25267857 0.437894737,0.925892857 C0.437894737,0.599107143 0.656842105,0.38125 0.985263158,0.38125 C1.31368421,0.38125 1.53263158,0.599107143 1.53263158,0.925892857 C1.53263158,1.25267857 1.25894737,1.47053571 0.985263158,1.47053571 L0.985263158,1.47053571 Z M0.985263158,0.544642857 C0.766315789,0.544642857 0.602105263,0.708035714 0.602105263,0.925892857 C0.602105263,1.14375 0.766315789,1.30714286 0.985263158,1.30714286 C1.20421053,1.30714286 1.36842105,1.14375 1.36842105,0.925892857 C1.36842105,0.708035714 1.20421053,0.544642857 0.985263158,0.544642857 L0.985263158,0.544642857 Z" id="Shape"></path>
                </g>
                <g transform="translate(88.673684, 11.437500)" fill="#383838">
                    <ellipse id="Oval" cx="0.711578947" cy="0.980357143" rx="0.437894737" ry="0.435714286"></ellipse>
                    <path d="M0.711578947,1.525 C0.437894737,1.525 0.164210526,1.30714286 0.164210526,0.980357143 C0.164210526,0.653571429 0.383157895,0.435714286 0.711578947,0.435714286 C0.985263158,0.435714286 1.25894737,0.653571429 1.25894737,0.980357143 C1.25894737,1.30714286 0.985263158,1.525 0.711578947,1.525 L0.711578947,1.525 Z M0.711578947,0.599107143 C0.492631579,0.599107143 0.328421053,0.7625 0.328421053,0.980357143 C0.328421053,1.19821429 0.492631579,1.36160714 0.711578947,1.36160714 C0.930526316,1.36160714 1.09473684,1.19821429 1.09473684,0.980357143 C1.09473684,0.7625 0.930526316,0.599107143 0.711578947,0.599107143 L0.711578947,0.599107143 Z" id="Shape"></path>
                </g>
                <g transform="translate(89.221053, 7.625000)" fill="#F16956">
                    <ellipse id="Oval" cx="0.930526316" cy="1.03482143" rx="0.437894737" ry="0.435714286"></ellipse>
                    <path d="M0.930526316,1.525 C0.656842105,1.525 0.383157895,1.30714286 0.383157895,0.980357143 C0.383157895,0.653571429 0.602105263,0.435714286 0.930526316,0.435714286 C1.20421053,0.435714286 1.47789474,0.653571429 1.47789474,0.980357143 C1.47789474,1.30714286 1.20421053,1.525 0.930526316,1.525 L0.930526316,1.525 Z M0.930526316,0.599107143 C0.711578947,0.599107143 0.547368421,0.7625 0.547368421,0.980357143 C0.547368421,1.19821429 0.711578947,1.36160714 0.930526316,1.36160714 C1.14947368,1.36160714 1.31368421,1.19821429 1.31368421,0.980357143 C1.31368421,0.816964286 1.14947368,0.599107143 0.930526316,0.599107143 L0.930526316,0.599107143 Z" id="Shape"></path>
                </g>
                <g transform="translate(1.094737, 9.803571)" fill="#3EBFC0">
                    <ellipse id="Oval" cx="0.930526316" cy="0.980357143" rx="0.437894737" ry="0.435714286"></ellipse>
                    <path d="M0.930526316,1.525 C0.656842105,1.525 0.383157895,1.30714286 0.383157895,0.980357143 C0.383157895,0.708035714 0.602105263,0.435714286 0.930526316,0.435714286 C1.25894737,0.435714286 1.47789474,0.653571429 1.47789474,0.980357143 C1.47789474,1.30714286 1.20421053,1.525 0.930526316,1.525 L0.930526316,1.525 Z M0.930526316,0.599107143 C0.711578947,0.599107143 0.547368421,0.7625 0.547368421,0.980357143 C0.547368421,1.19821429 0.711578947,1.36160714 0.930526316,1.36160714 C1.14947368,1.36160714 1.31368421,1.19821429 1.31368421,0.980357143 C1.31368421,0.7625 1.14947368,0.599107143 0.930526316,0.599107143 L0.930526316,0.599107143 Z" id="Shape"></path>
                </g>
                <g transform="translate(78.821053, 0.544643)" fill="#F5B11A">
                    <ellipse id="Oval" cx="1.04" cy="0.925892857" rx="0.437894737" ry="0.435714286"></ellipse>
                    <path d="M1.04,1.47053571 C0.766315789,1.47053571 0.492631579,1.25267857 0.492631579,0.925892857 C0.492631579,0.599107143 0.711578947,0.38125 1.04,0.38125 C1.31368421,0.38125 1.58736842,0.599107143 1.58736842,0.925892857 C1.58736842,1.25267857 1.31368421,1.47053571 1.04,1.47053571 L1.04,1.47053571 Z M1.04,0.544642857 C0.821052632,0.544642857 0.656842105,0.708035714 0.656842105,0.925892857 C0.656842105,1.14375 0.821052632,1.30714286 1.04,1.30714286 C1.25894737,1.30714286 1.42315789,1.14375 1.42315789,0.925892857 C1.42315789,0.708035714 1.25894737,0.544642857 1.04,0.544642857 L1.04,0.544642857 Z" id="Shape"></path>
                </g>
                <g transform="translate(30.652632, 28.321429)" fill="#3EBFC0">
                    <ellipse id="Oval" cx="0.930526316" cy="0.980357143" rx="0.437894737" ry="0.435714286"></ellipse>
                    <path d="M0.930526316,1.47053571 C0.656842105,1.47053571 0.383157895,1.25267857 0.383157895,0.925892857 C0.383157895,0.599107143 0.602105263,0.38125 0.930526316,0.38125 C1.25894737,0.38125 1.47789474,0.599107143 1.47789474,0.925892857 C1.47789474,1.25267857 1.20421053,1.47053571 0.930526316,1.47053571 L0.930526316,1.47053571 Z M0.930526316,0.544642857 C0.711578947,0.544642857 0.547368421,0.708035714 0.547368421,0.925892857 C0.547368421,1.14375 0.711578947,1.30714286 0.930526316,1.30714286 C1.14947368,1.30714286 1.31368421,1.14375 1.31368421,0.925892857 C1.31368421,0.7625 1.14947368,0.544642857 0.930526316,0.544642857 L0.930526316,0.544642857 Z" id="Shape"></path>
                </g>
                <g transform="translate(7.663158, 53.919643)" fill="#3EBFC0">
                    <ellipse id="Oval" cx="1.20421053" cy="1.03482143" rx="0.930526316" ry="0.925892857"></ellipse>
                    <path d="M1.20421053,2.01517857 C0.656842105,2.01517857 0.218947368,1.57946429 0.218947368,1.03482143 C0.218947368,0.490178571 0.656842105,0.0544642857 1.20421053,0.0544642857 C1.75157895,0.0544642857 2.18947368,0.490178571 2.18947368,1.03482143 C2.24421053,1.57946429 1.75157895,2.01517857 1.20421053,2.01517857 L1.20421053,2.01517857 Z M1.20421053,0.163392857 C0.711578947,0.163392857 0.328421053,0.544642857 0.328421053,1.03482143 C0.328421053,1.525 0.711578947,1.90625 1.20421053,1.90625 C1.69684211,1.90625 2.08,1.525 2.08,1.03482143 C2.08,0.544642857 1.69684211,0.163392857 1.20421053,0.163392857 L1.20421053,0.163392857 Z" id="Shape"></path>
                </g>
                <g transform="translate(0.000000, 39.214286)" fill="#383838">
                    <ellipse id="Oval" cx="0.547368421" cy="0.925892857" rx="0.437894737" ry="0.435714286"></ellipse>
                    <path d="M0.547368421,1.47053571 C0.273684211,1.47053571 0,1.25267857 0,0.925892857 C0,0.653571429 0.218947368,0.38125 0.547368421,0.38125 C0.875789474,0.38125 1.09473684,0.599107143 1.09473684,0.925892857 C1.04,1.25267857 0.821052632,1.47053571 0.547368421,1.47053571 L0.547368421,1.47053571 Z M0.547368421,0.544642857 C0.328421053,0.544642857 0.164210526,0.708035714 0.164210526,0.925892857 C0.164210526,1.14375 0.328421053,1.30714286 0.547368421,1.30714286 C0.766315789,1.30714286 0.930526316,1.14375 0.930526316,0.925892857 C0.930526316,0.708035714 0.766315789,0.544642857 0.547368421,0.544642857 L0.547368421,0.544642857 Z" id="Shape"></path>
                </g>
                <g transform="translate(1.642105, 43.571429)" fill="#F5B11A">
                    <ellipse id="Oval" cx="0.711578947" cy="0.7625" rx="0.437894737" ry="0.435714286"></ellipse>
                    <path d="M0.711578947,1.25267857 C0.437894737,1.25267857 0.164210526,1.03482143 0.164210526,0.708035714 C0.164210526,0.435714286 0.383157895,0.163392857 0.711578947,0.163392857 C0.985263158,0.163392857 1.25894737,0.38125 1.25894737,0.708035714 C1.20421053,1.03482143 0.985263158,1.25267857 0.711578947,1.25267857 L0.711578947,1.25267857 Z M0.711578947,0.38125 C0.492631579,0.38125 0.328421053,0.544642857 0.328421053,0.7625 C0.328421053,0.980357143 0.492631579,1.14375 0.711578947,1.14375 C0.930526316,1.14375 1.09473684,0.980357143 1.09473684,0.7625 C1.09473684,0.544642857 0.930526316,0.38125 0.711578947,0.38125 L0.711578947,0.38125 Z" id="Shape"></path>
                </g>
                <g transform="translate(6.021053, 51.741071)" fill="#F16956">
                    <ellipse id="Oval" cx="0.875789474" cy="0.816964286" rx="0.437894737" ry="0.435714286"></ellipse>
                    <path d="M0.875789474,1.30714286 C0.602105263,1.30714286 0.328421053,1.08928571 0.328421053,0.7625 C0.328421053,0.490178571 0.547368421,0.217857143 0.875789474,0.217857143 C1.14947368,0.217857143 1.42315789,0.435714286 1.42315789,0.7625 C1.42315789,1.08928571 1.20421053,1.30714286 0.875789474,1.30714286 L0.875789474,1.30714286 Z M0.875789474,0.435714286 C0.656842105,0.435714286 0.492631579,0.599107143 0.492631579,0.816964286 C0.492631579,1.03482143 0.656842105,1.19821429 0.875789474,1.19821429 C1.09473684,1.19821429 1.25894737,1.03482143 1.25894737,0.816964286 C1.31368421,0.599107143 1.09473684,0.435714286 0.875789474,0.435714286 L0.875789474,0.435714286 Z" id="Shape"></path>
                </g>
                <g transform="translate(7.663158, 26.142857)" fill="#F5B11A">
                    <ellipse id="Oval" cx="1.14947368" cy="1.47053571" rx="0.930526316" ry="0.925892857"></ellipse>
                    <path d="M1.14947368,2.45089286 C0.602105263,2.45089286 0.164210526,2.01517857 0.164210526,1.47053571 C0.164210526,0.925892857 0.602105263,0.490178571 1.14947368,0.490178571 C1.69684211,0.490178571 2.13473684,0.925892857 2.13473684,1.47053571 C2.13473684,2.01517857 1.64210526,2.45089286 1.14947368,2.45089286 L1.14947368,2.45089286 Z M1.14947368,0.599107143 C0.656842105,0.599107143 0.273684211,0.980357143 0.273684211,1.47053571 C0.273684211,1.96071429 0.656842105,2.34196429 1.14947368,2.34196429 C1.64210526,2.34196429 2.02526316,1.96071429 2.02526316,1.47053571 C1.97052632,0.980357143 1.58736842,0.599107143 1.14947368,0.599107143 L1.14947368,0.599107143 Z" id="Shape"></path>
                </g>
                <g transform="translate(42.694737, 27.776786)" fill="#383838">
                    <ellipse id="Oval" cx="0.821052632" cy="0.871428571" rx="0.437894737" ry="0.435714286"></ellipse>
                    <path d="M0.821052632,1.41607143 C0.547368421,1.41607143 0.273684211,1.19821429 0.273684211,0.871428571 C0.273684211,0.544642857 0.492631579,0.326785714 0.821052632,0.326785714 C1.14947368,0.326785714 1.36842105,0.544642857 1.36842105,0.871428571 C1.36842105,1.19821429 1.14947368,1.41607143 0.821052632,1.41607143 L0.821052632,1.41607143 Z M0.821052632,0.490178571 C0.602105263,0.490178571 0.437894737,0.653571429 0.437894737,0.871428571 C0.437894737,1.08928571 0.602105263,1.25267857 0.821052632,1.25267857 C1.04,1.25267857 1.20421053,1.08928571 1.20421053,0.871428571 C1.20421053,0.653571429 1.04,0.490178571 0.821052632,0.490178571 L0.821052632,0.490178571 Z" id="Shape"></path>
                </g>
                <g transform="translate(81.010526, 37.035714)" fill="#F5B11A">
                    <ellipse id="Oval" cx="1.42315789" cy="0.980357143" rx="0.930526316" ry="0.925892857"></ellipse>
                    <path d="M1.42315789,1.96071429 C0.875789474,1.96071429 0.437894737,1.525 0.437894737,0.980357143 C0.437894737,0.435714286 0.875789474,0 1.42315789,0 C1.97052632,0 2.40842105,0.435714286 2.40842105,0.980357143 C2.40842105,1.525 1.97052632,1.96071429 1.42315789,1.96071429 L1.42315789,1.96071429 Z M1.42315789,0.108928571 C0.930526316,0.108928571 0.547368421,0.490178571 0.547368421,0.980357143 C0.547368421,1.47053571 0.930526316,1.85178571 1.42315789,1.85178571 C1.91578947,1.85178571 2.29894737,1.47053571 2.29894737,0.980357143 C2.29894737,0.490178571 1.91578947,0.108928571 1.42315789,0.108928571 L1.42315789,0.108928571 Z" id="Shape"></path>
                </g>
                <g transform="translate(86.484211, 57.187500)" fill="#383838">
                    <ellipse id="Oval" cx="1.04" cy="0.871428571" rx="0.437894737" ry="0.435714286"></ellipse>
                    <path d="M1.04,1.36160714 C0.766315789,1.36160714 0.492631579,1.14375 0.492631579,0.816964286 C0.492631579,0.544642857 0.711578947,0.272321429 1.04,0.272321429 C1.36842105,0.272321429 1.58736842,0.490178571 1.58736842,0.816964286 C1.58736842,1.14375 1.31368421,1.36160714 1.04,1.36160714 L1.04,1.36160714 Z M1.04,0.435714286 C0.821052632,0.435714286 0.656842105,0.599107143 0.656842105,0.816964286 C0.656842105,1.03482143 0.821052632,1.19821429 1.04,1.19821429 C1.25894737,1.19821429 1.42315789,1.03482143 1.42315789,0.816964286 C1.42315789,0.653571429 1.25894737,0.435714286 1.04,0.435714286 L1.04,0.435714286 Z" id="Shape"></path>
                </g>
                <g transform="translate(77.178947, 43.571429)" fill="#F5B11A">
                    <ellipse id="Oval" cx="0.711578947" cy="0.708035714" rx="0.437894737" ry="0.435714286"></ellipse>
                    <path d="M0.711578947,1.25267857 C0.437894737,1.25267857 0.164210526,1.03482143 0.164210526,0.708035714 C0.164210526,0.435714286 0.383157895,0.163392857 0.711578947,0.163392857 C0.985263158,0.163392857 1.25894737,0.38125 1.25894737,0.708035714 C1.20421053,0.980357143 0.985263158,1.25267857 0.711578947,1.25267857 L0.711578947,1.25267857 Z M0.711578947,0.326785714 C0.492631579,0.326785714 0.328421053,0.490178571 0.328421053,0.708035714 C0.328421053,0.925892857 0.492631579,1.08928571 0.711578947,1.08928571 C0.930526316,1.08928571 1.09473684,0.925892857 1.09473684,0.708035714 C1.09473684,0.490178571 0.930526316,0.326785714 0.711578947,0.326785714 L0.711578947,0.326785714 Z" id="Shape"></path>
                </g>
                <g transform="translate(83.200000, 52.830357)" fill="#F16956">
                    <ellipse id="Oval" cx="0.821052632" cy="0.980357143" rx="0.437894737" ry="0.435714286"></ellipse>
                    <path d="M0.821052632,1.47053571 C0.547368421,1.47053571 0.273684211,1.25267857 0.273684211,0.925892857 C0.273684211,0.653571429 0.492631579,0.38125 0.821052632,0.38125 C1.09473684,0.38125 1.36842105,0.599107143 1.36842105,0.925892857 C1.31368421,1.25267857 1.09473684,1.47053571 0.821052632,1.47053571 L0.821052632,1.47053571 Z M0.821052632,0.599107143 C0.602105263,0.599107143 0.437894737,0.7625 0.437894737,0.980357143 C0.437894737,1.19821429 0.602105263,1.36160714 0.821052632,1.36160714 C1.04,1.36160714 1.20421053,1.19821429 1.20421053,0.980357143 C1.20421053,0.7625 1.04,0.599107143 0.821052632,0.599107143 L0.821052632,0.599107143 Z" id="Shape"></path>
                </g>
                <g transform="translate(63.494737, 7.625000)" fill="#383838">
                    <ellipse id="Oval" cx="0.547368421" cy="0.925892857" rx="0.437894737" ry="0.435714286"></ellipse>
                    <path d="M0.547368421,1.47053571 C0.273684211,1.47053571 0,1.25267857 0,0.925892857 C0,0.653571429 0.218947368,0.38125 0.547368421,0.38125 C0.821052632,0.38125 1.09473684,0.599107143 1.09473684,0.925892857 C1.09473684,1.25267857 0.875789474,1.47053571 0.547368421,1.47053571 L0.547368421,1.47053571 Z M0.547368421,0.544642857 C0.328421053,0.544642857 0.164210526,0.708035714 0.164210526,0.925892857 C0.164210526,1.14375 0.328421053,1.30714286 0.547368421,1.30714286 C0.766315789,1.30714286 0.930526316,1.14375 0.930526316,0.925892857 C0.985263158,0.708035714 0.766315789,0.544642857 0.547368421,0.544642857 L0.547368421,0.544642857 Z" id="Shape"></path>
                </g>
                <g transform="translate(60.210526, 3.267857)" fill="#F16956">
                    <ellipse id="Oval" cx="0.602105263" cy="1.08928571" rx="0.437894737" ry="0.435714286"></ellipse>
                    <path d="M0.602105263,1.57946429 C0.328421053,1.57946429 0.0547368421,1.36160714 0.0547368421,1.03482143 C0.0547368421,0.7625 0.273684211,0.490178571 0.602105263,0.490178571 C0.875789474,0.490178571 1.14947368,0.708035714 1.14947368,1.03482143 C1.09473684,1.36160714 0.875789474,1.57946429 0.602105263,1.57946429 L0.602105263,1.57946429 Z M0.602105263,0.708035714 C0.383157895,0.708035714 0.218947368,0.871428571 0.218947368,1.08928571 C0.218947368,1.30714286 0.383157895,1.47053571 0.602105263,1.47053571 C0.821052632,1.47053571 0.985263158,1.30714286 0.985263158,1.08928571 C0.985263158,0.871428571 0.821052632,0.708035714 0.602105263,0.708035714 L0.602105263,0.708035714 Z" id="Shape"></path>
                </g>
                <g transform="translate(54.189474, 25.053571)" fill="#383838">
                    <ellipse id="Oval" cx="0.656842105" cy="0.816964286" rx="0.437894737" ry="0.435714286"></ellipse>
                    <path d="M0.656842105,1.36160714 C0.383157895,1.36160714 0.109473684,1.14375 0.109473684,0.816964286 C0.109473684,0.544642857 0.328421053,0.272321429 0.656842105,0.272321429 C0.930526316,0.272321429 1.20421053,0.490178571 1.20421053,0.816964286 C1.14947368,1.14375 0.930526316,1.36160714 0.656842105,1.36160714 L0.656842105,1.36160714 Z M0.656842105,0.435714286 C0.437894737,0.435714286 0.273684211,0.599107143 0.273684211,0.816964286 C0.273684211,1.03482143 0.437894737,1.19821429 0.656842105,1.19821429 C0.875789474,1.19821429 1.04,1.03482143 1.04,0.816964286 C1.04,0.599107143 0.875789474,0.435714286 0.656842105,0.435714286 L0.656842105,0.435714286 Z" id="Shape"></path>
                </g>
                <g transform="translate(1.094737, 2.723214)" fill="#383838">
                    <ellipse id="Oval" cx="0.766315789" cy="0.980357143" rx="0.437894737" ry="0.435714286"></ellipse>
                    <path d="M0.766315789,1.525 C0.492631579,1.525 0.218947368,1.30714286 0.218947368,0.980357143 C0.218947368,0.708035714 0.437894737,0.435714286 0.766315789,0.435714286 C1.04,0.435714286 1.31368421,0.653571429 1.31368421,0.980357143 C1.31368421,1.30714286 1.04,1.525 0.766315789,1.525 L0.766315789,1.525 Z M0.766315789,0.599107143 C0.547368421,0.599107143 0.383157895,0.7625 0.383157895,0.980357143 C0.383157895,1.19821429 0.547368421,1.36160714 0.766315789,1.36160714 C0.985263158,1.36160714 1.14947368,1.19821429 1.14947368,0.980357143 C1.14947368,0.7625 0.985263158,0.599107143 0.766315789,0.599107143 L0.766315789,0.599107143 Z" id="Shape"></path>
                </g>
                <g transform="translate(39.410526, 2.723214)" fill="#3EBFC0">
                    <ellipse id="Oval" cx="0.821052632" cy="0.871428571" rx="0.437894737" ry="0.435714286"></ellipse>
                    <path d="M0.821052632,1.36160714 C0.547368421,1.36160714 0.273684211,1.14375 0.273684211,0.816964286 C0.273684211,0.490178571 0.492631579,0.272321429 0.821052632,0.272321429 C1.14947368,0.272321429 1.36842105,0.490178571 1.36842105,0.816964286 C1.36842105,1.14375 1.09473684,1.36160714 0.821052632,1.36160714 L0.821052632,1.36160714 Z M0.821052632,0.490178571 C0.602105263,0.490178571 0.437894737,0.653571429 0.437894737,0.871428571 C0.437894737,1.08928571 0.602105263,1.25267857 0.821052632,1.25267857 C1.04,1.25267857 1.20421053,1.08928571 1.20421053,0.871428571 C1.20421053,0.653571429 1.04,0.490178571 0.821052632,0.490178571 L0.821052632,0.490178571 Z" id="Shape"></path>
                </g>
                <g transform="translate(31.747368, 59.910714)" fill="#383838">
                    <ellipse id="Oval" cx="0.602105263" cy="0.544642857" rx="0.328421053" ry="0.326785714"></ellipse>
                    <path d="M0.602105263,0.925892857 C0.383157895,0.925892857 0.218947368,0.7625 0.218947368,0.544642857 C0.218947368,0.326785714 0.383157895,0.163392857 0.602105263,0.163392857 C0.821052632,0.163392857 0.985263158,0.326785714 0.985263158,0.544642857 C0.985263158,0.7625 0.821052632,0.925892857 0.602105263,0.925892857 L0.602105263,0.925892857 Z M0.602105263,0.272321429 C0.492631579,0.272321429 0.383157895,0.38125 0.383157895,0.490178571 C0.383157895,0.599107143 0.492631579,0.708035714 0.602105263,0.708035714 C0.711578947,0.708035714 0.821052632,0.599107143 0.821052632,0.490178571 C0.821052632,0.38125 0.766315789,0.272321429 0.602105263,0.272321429 L0.602105263,0.272321429 Z" id="Shape"></path>
                </g>
                <g transform="translate(27.915789, 12.526786)" fill="#F16956">
                    <ellipse id="Oval" cx="1.14947368" cy="1.25267857" rx="0.930526316" ry="0.925892857"></ellipse>
                    <path d="M1.14947368,2.23303571 C0.602105263,2.23303571 0.164210526,1.79732143 0.164210526,1.25267857 C0.164210526,0.708035714 0.602105263,0.272321429 1.14947368,0.272321429 C1.69684211,0.272321429 2.13473684,0.708035714 2.13473684,1.25267857 C2.13473684,1.79732143 1.69684211,2.23303571 1.14947368,2.23303571 L1.14947368,2.23303571 Z M1.14947368,0.435714286 C0.656842105,0.435714286 0.273684211,0.816964286 0.273684211,1.30714286 C0.273684211,1.79732143 0.656842105,2.17857143 1.14947368,2.17857143 C1.64210526,2.17857143 2.02526316,1.79732143 2.02526316,1.30714286 C2.02526316,0.816964286 1.64210526,0.435714286 1.14947368,0.435714286 L1.14947368,0.435714286 Z" id="Shape"></path>
                </g>
                <g transform="translate(29.557895, 10.348214)" fill="#383838">
                    <ellipse id="Oval" cx="0.821052632" cy="0.925892857" rx="0.437894737" ry="0.435714286"></ellipse>
                    <path d="M0.821052632,1.41607143 C0.547368421,1.41607143 0.273684211,1.19821429 0.273684211,0.871428571 C0.273684211,0.599107143 0.492631579,0.326785714 0.821052632,0.326785714 C1.14947368,0.326785714 1.36842105,0.544642857 1.36842105,0.871428571 C1.36842105,1.19821429 1.14947368,1.41607143 0.821052632,1.41607143 L0.821052632,1.41607143 Z M0.821052632,0.490178571 C0.602105263,0.490178571 0.437894737,0.653571429 0.437894737,0.871428571 C0.437894737,1.08928571 0.602105263,1.25267857 0.821052632,1.25267857 C1.04,1.25267857 1.20421053,1.08928571 1.20421053,0.871428571 C1.20421053,0.708035714 1.04,0.490178571 0.821052632,0.490178571 L0.821052632,0.490178571 Z" id="Shape"></path>
                </g>
                <g transform="translate(56.378947, 50.107143)" fill="#F16956">
                    <ellipse id="Oval" cx="1.42315789" cy="1.14375" rx="0.930526316" ry="0.925892857"></ellipse>
                    <path d="M1.42315789,2.12410714 C0.875789474,2.12410714 0.437894737,1.68839286 0.437894737,1.14375 C0.437894737,0.599107143 0.875789474,0.163392857 1.42315789,0.163392857 C1.97052632,0.163392857 2.40842105,0.599107143 2.40842105,1.14375 C2.40842105,1.68839286 1.97052632,2.12410714 1.42315789,2.12410714 L1.42315789,2.12410714 Z M1.42315789,0.326785714 C0.930526316,0.326785714 0.547368421,0.708035714 0.547368421,1.19821429 C0.547368421,1.68839286 0.930526316,2.06964286 1.42315789,2.06964286 C1.91578947,2.06964286 2.29894737,1.68839286 2.29894737,1.19821429 C2.29894737,0.708035714 1.86105263,0.326785714 1.42315789,0.326785714 L1.42315789,0.326785714 Z" id="Shape"></path>
                </g>
                <g transform="translate(60.757895, 51.196429)" fill="#383838">
                    <ellipse id="Oval" cx="0.821052632" cy="0.653571429" rx="0.437894737" ry="0.435714286"></ellipse>
                    <path d="M0.821052632,1.19821429 C0.547368421,1.19821429 0.273684211,0.980357143 0.273684211,0.653571429 C0.273684211,0.38125 0.492631579,0.108928571 0.821052632,0.108928571 C1.14947368,0.108928571 1.36842105,0.326785714 1.36842105,0.653571429 C1.31368421,0.925892857 1.09473684,1.19821429 0.821052632,1.19821429 L0.821052632,1.19821429 Z M0.821052632,0.272321429 C0.602105263,0.272321429 0.437894737,0.435714286 0.437894737,0.653571429 C0.437894737,0.871428571 0.602105263,1.03482143 0.821052632,1.03482143 C1.04,1.03482143 1.20421053,0.871428571 1.20421053,0.653571429 C1.20421053,0.435714286 1.04,0.272321429 0.821052632,0.272321429 L0.821052632,0.272321429 Z" id="Shape"></path>
                </g>
            </g>
        </g>
    </g>
</svg>